<svg width="17" height="16" viewBox="0 0 17 16" fill="none" xmlns="http://www.w3.org/2000/svg">
<path d="M12.4064 3.87561C12.418 4.38059 12.3343 4.8896 12.1535 5.37405C11.9022 6.04695 11.4753 6.63167 10.918 7.08309C10.8681 7.12376 10.8004 7.14793 10.7702 7.23692C11.1355 7.36417 11.4995 7.49143 11.8482 7.65613C12.0609 7.7568 12.1974 7.90419 12.2034 8.14581C12.2135 8.53642 11.8281 8.78609 11.4544 8.61495C10.9522 8.38501 10.4368 8.19896 9.89636 8.08862C6.32323 7.35974 2.84554 9.43846 2.05102 13.101C1.94874 13.5721 2.24351 13.9193 2.75212 13.9197C5.16749 13.9213 7.58287 13.9205 9.99824 13.9209C10.314 13.9209 10.5028 14.0413 10.5769 14.2853C10.6736 14.603 10.4553 14.924 10.1247 14.9494C10.078 14.953 10.0309 14.951 9.98374 14.951C7.56152 14.951 5.13971 14.9514 2.71749 14.9506C1.56779 14.9502 0.783334 13.9849 1.0467 12.8698C1.69544 10.1235 3.35536 8.27266 6.00872 7.31182C6.04658 7.29813 6.08443 7.28484 6.12148 7.27035C6.12631 7.26833 6.12873 7.25947 6.13316 7.25182C6.14161 7.19101 6.08403 7.17974 6.0506 7.15397C5.01648 6.35502 4.38827 5.05994 4.47445 3.74272C4.49338 3.45157 4.53606 3.16324 4.6158 2.88216C5.12883 1.07526 6.87412 -0.13766 8.74666 0.0125453C9.92253 0.106776 11.0183 0.731359 11.6956 1.69783C12.1494 2.34537 12.3886 3.10526 12.4064 3.87561ZM5.73006 2.86001C5.67972 2.98122 5.63784 3.10606 5.60442 3.23412C5.43971 3.86595 5.48844 4.52033 5.7361 5.12276C5.74335 5.22747 5.81382 5.30398 5.86295 5.38734C6.48672 6.45005 7.42299 6.98362 8.648 6.89705C9.89314 6.80885 10.9248 5.98011 11.2607 4.76879C11.6167 3.4854 11.036 2.04657 9.86253 1.40104C9.44735 1.17271 8.97901 1.06238 8.50786 1.04103C7.29534 0.985863 6.1839 1.76589 5.73006 2.86001Z" fill="#EBF2E4"/>
<path d="M11.748 12.7369C11.4665 12.7373 11.1846 12.7401 10.9031 12.7361C10.6188 12.7321 10.4203 12.5396 10.4235 12.2791C10.4267 12.0209 10.6128 11.8369 10.893 11.8341C11.4496 11.8288 12.0065 11.8256 12.5626 11.8365C12.7293 11.8397 12.7636 11.7833 12.7616 11.6303C12.7539 11.0738 12.7543 10.5173 12.7612 9.96073C12.7644 9.70663 12.9106 9.53871 13.13 9.50206C13.3398 9.46703 13.538 9.57173 13.6274 9.761C13.666 9.84315 13.6672 9.92932 13.6672 10.0167C13.6668 10.5599 13.6733 11.1032 13.6636 11.646C13.6608 11.799 13.7055 11.8369 13.8549 11.8349C14.4183 11.8264 14.9816 11.8288 15.5446 11.8345C15.7737 11.8369 15.9336 11.9662 15.99 12.1707C16.0411 12.3564 15.9529 12.5674 15.7826 12.6749C15.6928 12.7317 15.5941 12.7369 15.4926 12.7369C14.9426 12.7365 14.3929 12.7418 13.8428 12.7333C13.6998 12.7313 13.6628 12.774 13.6644 12.9133C13.6717 13.4763 13.6676 14.0396 13.6664 14.603C13.666 14.8124 13.5706 14.963 13.3745 15.0399C13.186 15.114 13.0185 15.0689 12.8787 14.9272C12.7777 14.8249 12.7587 14.6932 12.7587 14.5551C12.7599 14.0119 12.7539 13.4686 12.7616 12.9258C12.7636 12.7788 12.7273 12.7252 12.5719 12.7325C12.2985 12.7462 12.023 12.7365 11.748 12.7369Z" fill="#EBF2E4"/>
<path d="M12.3548 4.68187C12.3407 4.64723 12.3487 4.61703 12.3733 4.59045C12.3874 4.62468 12.3898 4.6569 12.3548 4.68187Z" fill="#B9BABC"/>
<path d="M5.73086 2.86035C5.73731 2.88612 5.72804 2.90263 5.70227 2.90988C5.71194 2.89337 5.7216 2.87686 5.73086 2.86035Z" fill="#B9BABC"/>
</svg>
