<svg width="17" height="16" viewBox="0 0 17 16" fill="none" xmlns="http://www.w3.org/2000/svg">
<path d="M1.07324 8.44255C1.07775 4.32039 4.40376 1.0079 8.53324 1.00001C12.5889 0.992126 16 4.24883 16 8.47128C16 12.5901 12.6345 16.0186 8.31462 15.8868C4.11978 15.7583 1.07324 12.4278 1.07324 8.44255ZM8.52197 15.0557C12.1968 15.0591 15.1419 12.1787 15.1672 8.49551C15.192 4.83819 12.2244 1.87673 8.57437 1.85645C4.9441 1.8356 1.94207 4.78748 1.93193 8.44593C1.92235 11.9748 4.72605 15.0934 8.52197 15.0557Z" fill="white" stroke="white" stroke-width="0.2"/>
<path d="M8.10782 10.8524C8.10782 10.2985 8.09599 9.74468 8.11345 9.19194C8.12078 8.95417 8.07232 8.87247 7.81145 8.87641C6.71386 8.89332 5.61514 8.88374 4.51699 8.88374C4.43247 8.88374 4.34739 8.88768 4.264 8.88036C3.99073 8.85613 3.84086 8.70006 3.8448 8.45101C3.84875 8.21549 3.99524 8.06618 4.2533 8.0397C4.33725 8.03125 4.42177 8.03463 4.50629 8.03463C5.61402 8.03463 6.72118 8.02899 7.82891 8.03914C8.04302 8.04083 8.11571 7.99519 8.11345 7.7653C8.10049 6.64856 8.10782 5.53181 8.10782 4.41563C8.10782 4.33111 8.105 4.24603 8.11514 4.16264C8.14557 3.91078 8.30502 3.76598 8.54392 3.77387C8.78846 3.78232 8.92087 3.91811 8.94904 4.15588C8.95975 4.24885 8.95749 4.34294 8.95749 4.43704C8.95806 5.54421 8.96369 6.65137 8.95299 7.75854C8.95073 7.97659 9.0037 8.04252 9.22964 8.04026C10.3368 8.02787 11.4445 8.03463 12.5523 8.03463C12.6368 8.03463 12.7219 8.03068 12.8053 8.03857C13.0785 8.06336 13.2261 8.21887 13.2216 8.47017C13.2171 8.70963 13.0757 8.85388 12.8126 8.87923C12.7286 8.88712 12.6435 8.88374 12.5596 8.88374C11.4614 8.88374 10.3633 8.89106 9.26513 8.8781C9.02623 8.87529 8.94735 8.92149 8.95073 9.18067C8.96707 10.325 8.95749 11.4699 8.95806 12.6149C8.95806 12.8549 8.9158 13.0718 8.63689 13.1344C8.32475 13.2048 8.11458 13.0177 8.11064 12.6537C8.10331 12.0537 8.10782 11.453 8.10782 10.8524Z" fill="white" stroke="white" stroke-width="0.2"/>
</svg>
