<svg width="28" height="26" viewBox="0 0 28 26" fill="none" xmlns="http://www.w3.org/2000/svg">
<path d="M4.69286 16.4428C6.73237 16.4428 8.38571 14.7895 8.38571 12.75C8.38571 10.7105 6.73237 9.05713 4.69286 9.05713C2.65335 9.05713 1 10.7105 1 12.75C1 14.7895 2.65335 16.4428 4.69286 16.4428Z" stroke="#074A37" stroke-width="1.5"/>
<path d="M4.69287 17.1143V24.5" stroke="#074A37" stroke-width="1.5" stroke-linecap="round"/>
<path d="M14.0928 8.38571C16.1323 8.38571 17.7856 6.73237 17.7856 4.69286C17.7856 2.65335 16.1323 1 14.0928 1C12.0533 1 10.3999 2.65335 10.3999 4.69286C10.3999 6.73237 12.0533 8.38571 14.0928 8.38571Z" stroke="#074A37" stroke-width="1.5"/>
<path d="M14.0928 9.05713V24.5" stroke="#074A37" stroke-width="1.5" stroke-linecap="round"/>
<path d="M23.4929 20.4714C25.5324 20.4714 27.1858 18.8181 27.1858 16.7786C27.1858 14.739 25.5324 13.0857 23.4929 13.0857C21.4534 13.0857 19.8 14.739 19.8 16.7786C19.8 18.8181 21.4534 20.4714 23.4929 20.4714Z" stroke="#074A37" stroke-width="1.5"/>
<path d="M23.4929 21.1428V24.5" stroke="#074A37" stroke-width="1.5" stroke-linecap="round"/>
</svg>
