<?xml version="1.0" encoding="utf-8"?>
<!-- Generator: Adobe Illustrator 24.1.1, SVG Export Plug-In . SVG Version: 6.00 Build 0)  -->
<svg version="1.1" id="OBJECTS" xmlns="http://www.w3.org/2000/svg" xmlns:xlink="http://www.w3.org/1999/xlink" x="0px" y="0px"
	 viewBox="0 0 180.4 191" style="enable-background:new 0 0 180.4 191;" xml:space="preserve">
<style type="text/css">
	.st0{fill:#E8EEE1;}
</style>
<g>
</g>
<g>
	<path class="st0" d="M-514.1,757.2"/>
	<path class="st0" d="M-514.1,749.3"/>
	<path d="M85.1,35.3c0-8.5,0.3-17.1-0.1-25.7c-0.3-5.1,2.8-4.2,5.7-4.1c2.8,0,6.1-1.2,5.8,4c-0.4,7.7-0.1,15.5-0.1,24.3
		c2.1-2,3.4-3.3,4.8-4.6c10.3-9.3,22.4-14.1,36.3-14c11.8,0.1,23.7,0.1,35.5,0c2.2,0,3.8,0,3.7,3c-0.2,14.7,0.5,29.3-0.3,43.9
		c-1.1,19.5-11.1,33.7-28.3,42.9c-0.9,0.5-1.8,0.9-2.8,1.5c2.5,2.1,5.1,3.9,7.3,6c10,9.4,14.9,21,15,34.7c0.1,11.5-0.2,23,0.1,34.5
		c0.1,3.9-1.2,4.7-4.8,4.6c-9.2-0.2-18.3-0.3-27.5,0c-19.5,0.6-34.5-7.2-45-24c-3,3.8-5.5,7.9-8.9,11.3
		c-9.2,8.9-20.1,13.4-32.8,13.5c-10.8,0.1-21.7,0-32.5,0c-2.1,0-4,0.3-3.9-2.9c0.4-14-0.8-28,0.6-41.9c1.5-14.9,9.4-26,21.9-34.6
		c-11.6-5.6-20.4-13.5-26-24.8c-3.4-6.8-5.3-14-5.4-21.6C3.3,47.5,3.5,33.6,3.5,19.8c0-1.5-0.6-3.6,2.1-3.5
		c15.3,0.3,30.7-1.1,45.9,0.6c12.3,1.4,22.6,7.5,30.9,16.8c0.5,0.6,1.2,1.1,1.8,1.7C84.3,35.4,84.5,35.3,85.1,35.3z M15.1,47.1
		c0,4.5-0.1,9,0,13.5c0.4,19.3,14.2,35.5,33.2,38.7c10.9,1.8,21.9,0.4,32.9,0.8c2.5,0.1,2.6-1.4,2.6-3.2c0-10.3,0.3-20.7-0.1-31
		C83,46.3,67.9,30.1,48.4,28.2c-10.1-1-20.3-0.3-30.4-0.5c-2.7-0.1-2.9,1.4-2.8,3.5C15.2,36.5,15.1,41.8,15.1,47.1z M165.3,47.4
		c0-6.4-0.1-11.8,0.1-17.1c0.1-2.9-0.8-3.7-3.7-3.7c-8.7,0.2-17.3-0.1-26,0.1c-19.3,0.5-35.5,14.6-38.5,33.5
		c-1.9,11.9-0.3,23.9-0.8,35.9c-0.1,2.7,1.4,2.9,3.4,2.9c8.5-0.1,17,0,25.5,0c18.9-0.1,35.3-13.8,39.1-32.3
		C165.9,59.9,164.9,53.1,165.3,47.4z M156.3,158.1c0-4.2,0.1-8.3,0-12.5c-0.6-17-13.7-31.8-30.6-33.5c-8.7-0.9-17.6-0.3-26.4-0.5
		c-2.6-0.1-3,1.2-2.9,3.3c0.1,8.8-0.2,17.7,0.2,26.5c0.8,17.2,14.1,31.2,31.2,32.8c8.4,0.8,17,0.3,25.4,0.5c2.4,0.1,3.2-0.7,3.2-3.1
		C156.2,167.1,156.3,162.6,156.3,158.1z M24.1,157.3c0,5,0.3,9.2-0.1,13.3c-0.4,4.2,1.3,5,5,4.8c6.6-0.3,13.3,0,20-0.1
		c17.5-0.1,32-12.7,34.4-30c1.4-9.9,0.3-19.9,0.7-29.9c0.1-2.4-0.9-3.2-3.2-3.1c-7.5,0.1-15-0.3-22.5,0.2
		c-17.3,1.1-30.1,12-33.7,28.2C23.6,146.5,24.3,152.3,24.1,157.3z"/>
</g>
</svg>
