<svg width="14" height="13" viewBox="0 0 14 13" fill="none" xmlns="http://www.w3.org/2000/svg">
<path d="M0.651789 6.99462C0.651789 5.66594 0.649682 4.33727 0.652692 3.00859C0.654497 2.16744 1.17574 1.47497 1.94495 1.27905C2.09152 1.24173 2.24048 1.22668 2.39156 1.22668C3.72565 1.22729 5.05945 1.22638 6.39354 1.22729C6.74655 1.22759 6.99634 1.46533 6.99754 1.79728C6.99905 2.13223 6.74354 2.37811 6.38542 2.37871C5.08142 2.38021 3.77772 2.37901 2.47372 2.37931C2.0244 2.37931 1.81194 2.59268 1.81194 3.0441C1.81164 5.68641 1.81164 8.32872 1.81194 10.971C1.81194 11.4053 2.02501 11.6193 2.45717 11.6193C5.10008 11.6196 7.74299 11.6196 10.3856 11.6193C10.8129 11.6193 11.0326 11.3999 11.0326 10.9725C11.0332 9.66401 11.0317 8.3552 11.0335 7.04668C11.0341 6.65425 11.3209 6.3837 11.6812 6.42794C11.9836 6.46526 12.1898 6.70481 12.1919 7.03465C12.1955 7.55107 12.1928 8.06749 12.1928 8.58392C12.1928 9.38624 12.1955 10.1883 12.1919 10.9906C12.188 11.8706 11.6396 12.566 10.8135 12.74C10.682 12.7677 10.5451 12.7806 10.4109 12.7809C7.75292 12.7833 5.09496 12.7842 2.4373 12.7818C1.56426 12.7809 0.887731 12.2458 0.695125 11.4131C0.659914 11.2614 0.650585 11.1061 0.650886 10.9503C0.65209 9.63211 0.651789 8.31337 0.651789 6.99462Z" fill="#074A37"/>
<path d="M13.4131 1.71701C13.4049 2.30837 13.2226 2.74053 12.8671 3.09715C11.0582 4.91095 9.24766 6.72325 7.43988 8.53765C7.32431 8.65352 7.18497 8.7101 7.0336 8.74832C6.30651 8.93099 5.58003 9.11577 4.85144 9.29303C4.40212 9.40227 4.03166 9.04294 4.13819 8.59122C4.32177 7.81298 4.5216 7.03834 4.71541 6.2625C4.7443 6.14694 4.81623 6.05756 4.89899 5.9748C6.59602 4.27595 8.29246 2.57651 9.98889 0.877367C10.1057 0.760299 10.22 0.640522 10.3392 0.525862C11.3236 -0.423624 12.9198 -0.0323938 13.327 1.25806C13.3824 1.43502 13.4179 1.61619 13.4131 1.71701ZM5.48493 7.93937C5.86021 7.84608 6.2084 7.757 6.5584 7.67424C6.65471 7.65137 6.73115 7.60893 6.80067 7.53911C8.55157 5.78249 10.304 4.02767 12.0552 2.27135C12.3215 2.00411 12.3242 1.59452 12.0672 1.34113C11.8084 1.08592 11.4082 1.09465 11.1379 1.36219C11.0097 1.48919 10.8833 1.618 10.756 1.7456C9.12427 3.38034 7.49224 5.01508 5.86051 6.64952C5.825 6.68503 5.79099 6.72024 5.77805 6.772C5.68295 7.1539 5.58665 7.5358 5.48493 7.93937Z" fill="#074A37"/>
</svg>
