<svg version="1.1" id="_x31_0" xmlns="http://www.w3.org/2000/svg" xmlns:xlink="http://www.w3.org/1999/xlink" x="0px" y="0px" viewBox="0 0 512 512" style="opacity: 0.3;" xml:space="preserve">
                                                    <style type="text/css">
                                                        .st0{fill:#374149;}
                                                    </style>
                                                    <g stroke="none" stroke-width="1" fill="none" fill-rule="evenodd">
                                                        <path class="st0" d="M205.513,298.534c-0.027-0.07-0.058-0.141-0.082-0.214c-0.004,0-0.008,0.003-0.008,0.003
                                                            c-0.023-0.05-0.047-0.098-0.066-0.148c-1.488,0.75-3.023,1.438-4.554,2.133c-1.489,0.672-2.988,1.316-4.508,1.934
                                                            c-3.078,1.254-6.234,2.398-9.468,3.426c-1.633,0.515-3.282,0.996-4.942,1.453c-3.25,0.887-6.554,1.664-9.93,2.313
                                                            c-1.648,0.32-3.308,0.598-4.976,0.855c-3.551,0.547-7.156,0.965-10.813,1.23c-1.488,0.11-2.976,0.191-4.468,0.254
                                                            c-1.918,0.078-3.836,0.164-5.782,0.164c-0.878,0-1.679-0.082-2.48-0.082l-27.034,21.136l-13.297,10.293l-1.988-13.43l-3.758-26.956
                                                            c-16.882-6.562-31.441-16.402-42.64-28.64c-0.242-0.242-0.48-0.402-0.64-0.64c-1.122-1.282-2.16-2.563-3.282-3.84
                                                            c-0.48-0.641-0.957-1.199-1.438-1.84c-0.801-1.039-1.602-2.082-2.32-3.203c-0.641-0.878-1.281-1.758-1.84-2.636
                                                            c-0.722-0.962-1.281-2-1.922-3.043c-0.558-0.957-1.199-1.918-1.758-2.957c-0.641-1.199-1.203-2.402-1.84-3.684
                                                            c-0.402-0.797-0.882-1.598-1.203-2.476c-0.878-1.84-1.679-3.762-2.398-5.762c-0.082-0.16-0.082-0.321-0.16-0.481
                                                            c-3.199-8.718-4.878-17.999-4.878-27.597c0-52.882,51.436-95.837,114.875-95.837c37.308,0,70.338,14.851,91.334,37.819
                                                            c0.172,0.191,0.379,0.355,0.547,0.546l0.004-0.004c0.034,0.039,0.078,0.074,0.113,0.114c1.602-1.68,3.282-3.278,4.961-4.878
                                                            c5.515-5.137,11.488-9.883,17.793-14.238c0.328-0.218,0.637-0.48,0.965-0.691c0-0.008-0.004-0.008-0.008-0.012
                                                            c0.043-0.031,0.086-0.066,0.129-0.098c-4.48-5.038-9.359-9.839-14.8-14.32c-27.198-22.718-63.116-35.28-101.037-35.28
                                                            S72.08,101.782,44.799,124.5C15.921,148.581,0,181.139,0,216.099c0,44.237,26.562,84.954,68.959,107.837l3.359,23.758
                                                            c1.523,10.96,8.801,20.319,19.121,24.479c3.762,1.52,7.679,2.238,11.601,2.238c6.801,0,13.598-2.238,19.121-6.558l32.155-25.12
                                                            c21.866-1.055,42.8-6.469,61.6-15.434c1.027-0.484,2.133-0.855,3.148-1.359c-0.007-0.004-0.011-0.012-0.015-0.019
                                                            c0.046-0.024,0.102-0.043,0.148-0.066C213.588,317.167,209.017,308.007,205.513,298.534z"></path>
                                                        <path class="st0" fill="#000000" fill-rule="nonzero" d="M479.709,330.803c1.035-1.094,2.023-2.218,3.011-3.344c1.082-1.218,2.156-2.434,3.184-3.691
                                                            c0.777-0.953,1.515-1.926,2.262-2.894c1.206-1.562,2.394-3.137,3.523-4.75c0.418-0.598,0.809-1.207,1.211-1.809
                                                            c1.394-2.07,2.734-4.172,3.992-6.324c0.05-0.086,0.098-0.176,0.148-0.262c10.214-17.527,15.898-37.558,14.832-59.053
                                                            c-2.137-43.003-31.078-79.275-68.158-98.958c-23.582-12.515-50.288-18.702-76.935-18.702c-39.109,0-78.713,13.503-107.54,40.39
                                                            c-25.866,24.124-41.018,58.592-37.046,94.185c3.992,35.776,26.57,66.56,56.272,85.872c16.374,10.649,34.823,17.976,53.932,21.918
                                                            c9.942,2.051,20.062,3.183,30.21,3.426c4,0.098,4.542,0.89,7.625,3.297c18.214,14.226,36.433,28.453,54.647,42.678
                                                            c2.855-19.854,5.691-39.714,8.476-59.58c11.867-5.191,23.038-12.015,33.07-20.136c0.785-0.633,1.527-1.294,2.297-1.938
                                                            c1.511-1.282,3.019-2.562,4.476-3.906c1.086-0.996,2.118-2.031,3.164-3.058C477.49,333.052,478.623,331.948,479.709,330.803z
                                                             M313.577,305.768l44.21-109.571h17.984l32.226,79.877l11.937,29.753h-23.655l-8.898-23.69h-41.206l-8.898,23.69h-17.359
                                                            L313.577,305.768z"></path>
                                                        <polygon class="st0" points="381.001,264.976 372.813,243.856 366.927,228.34 366.865,228.501 366.779,228.282 356.385,255.09 
                                                            352.553,264.816 352.615,264.816 352.553,264.976     "></polygon>
                                                        <path class="st0" d="M179.643,259.238c1.77-2.531,3.157-5.163,4.153-7.91c0.996-2.742,1.714-5.718,2.156-8.938
                                                            c0.445-3.214,0.722-6.726,0.832-10.523c0.11-3.796,0.168-7.96,0.168-12.495c0-5.379-0.086-10.23-0.25-14.554
                                                            c-0.168-4.324-0.64-8.309-1.414-11.945c-0.774-3.641-1.965-6.988-3.566-10.047c-1.61-3.058-3.902-6.015-6.894-8.858
                                                            c-3.988-3.797-8.527-6.726-13.621-8.782c-5.09-2.058-11.07-3.086-17.933-3.086s-12.844,1.027-17.934,3.086
                                                            c-5.094,2.055-9.691,4.985-13.785,8.782c-2.988,2.843-5.285,5.8-6.89,8.858c-1.605,3.059-2.769,6.406-3.488,10.047
                                                            c-0.722,3.636-1.164,7.621-1.328,11.945c-0.164,4.324-0.25,9.175-0.25,14.554c0,5.378,0.086,10.23,0.25,14.554
                                                            c0.164,4.324,0.606,8.304,1.328,11.945c0.719,3.637,1.883,6.988,3.488,10.046c1.606,3.058,3.902,6.012,6.89,8.859
                                                            c4.094,3.797,8.691,6.722,13.785,8.781c5.09,2.055,11.07,3.086,17.934,3.086c4.758,0,9.105-0.531,13.034-1.586
                                                            c3.93-1.05,7.5-2.531,10.714-4.43l10.625,9.813l11.414-10.871l0.606-0.562L189.659,269l0.117-0.11L179.643,259.238z
                                                             M163.453,233.216c-0.23,2.914-0.715,5.351-1.36,7.511c-0.156,0.446-0.254,0.958-0.441,1.371l-8.91-8.488l-11.437,11.046
                                                            l-0.574,0.543l0.008,0.008l-0.118,0.11l8.246,7.734l2.007,1.938c-2.206,1.355-4.738,2.035-7.601,2.035
                                                            c-3.211,0-6.058-0.578-8.55-1.738c-2.493-1.16-4.626-2.637-6.394-4.43c-1.11-1.16-2.02-2.453-2.742-3.878
                                                            c-0.718-1.422-1.301-3.266-1.742-5.535c-0.441-2.266-0.746-5.168-0.914-8.703c-0.164-3.531-0.25-7.988-0.25-13.366
                                                            c0-5.379,0.086-9.836,0.25-13.371c0.168-3.531,0.473-6.457,0.914-8.781c0.442-2.316,1.024-4.191,1.742-5.613
                                                            c0.722-1.426,1.633-2.715,2.742-3.879c1.769-1.793,3.902-3.242,6.394-4.351c2.492-1.106,5.339-1.66,8.55-1.66
                                                            c3.21,0,6.062,0.554,8.55,1.66c2.496,1.11,4.57,2.558,6.23,4.351c1.106,1.164,2.019,2.454,2.738,3.879
                                                            c0.718,1.422,1.3,3.297,1.746,5.613c0.442,2.324,0.77,5.25,0.996,8.781c0.222,3.535,0.332,7.992,0.332,13.371
                                                            C163.866,225.068,163.725,229.68,163.453,233.216z"></path>
                                                    </g>
                                                </svg>