<svg width="24" height="31" viewBox="0 0 24 31" fill="none" xmlns="http://www.w3.org/2000/svg">
<path d="M19.4062 2.2605H3.90625C2.30117 2.2605 1 3.56167 1 5.16675V27.1251C1 28.7302 2.30117 30.0313 3.90625 30.0313H19.4062C21.0113 30.0313 22.3125 28.7302 22.3125 27.1251V5.16675C22.3125 3.56167 21.0113 2.2605 19.4062 2.2605Z" stroke="#074A37" stroke-width="1.5"/>
<path d="M9.073 13.2395H18.1147" stroke="#074A37" stroke-width="1.5"/>
<path d="M9.073 9.3645H16.823" stroke="#074A37" stroke-width="1.5"/>
<path d="M5.198 13.2395H7.78133" stroke="#074A37" stroke-width="1.5"/>
<path d="M5.198 9.3645H7.78133" stroke="#074A37" stroke-width="1.5"/>
<path d="M9.073 24.8645H18.1147" stroke="#074A37" stroke-width="1.5"/>
<path d="M5.198 24.8645H7.78133" stroke="#074A37" stroke-width="1.5"/>
<path d="M9.073 17.1145H15.5313" stroke="#074A37" stroke-width="1.5"/>
<path d="M5.198 17.1145H7.78133" stroke="#074A37" stroke-width="1.5"/>
<path d="M9.073 20.9895H16.823" stroke="#074A37" stroke-width="1.5"/>
<path d="M5.198 20.9895H7.78133" stroke="#074A37" stroke-width="1.5"/>
<path d="M15.5313 0H7.78133C6.3546 0 5.198 1.1566 5.198 2.58333C5.198 4.01007 6.3546 5.16667 7.78133 5.16667H15.5313C16.9581 5.16667 18.1147 4.01007 18.1147 2.58333C18.1147 1.1566 16.9581 0 15.5313 0Z" fill="#074A37"/>
</svg>
