<svg width="18" height="17" viewBox="0 0 18 17" fill="none" xmlns="http://www.w3.org/2000/svg">
<rect x="4.5" y="0.5" width="13" height="16" rx="2.5" stroke="#074A37"/>
<line x1="7.5" y1="7.5" x2="15.5" y2="7.5" stroke="#074A37" stroke-linecap="round"/>
<line x1="7.5" y1="5.5" x2="15.5" y2="5.5" stroke="#074A37" stroke-linecap="round"/>
<line x1="7.5" y1="3.5" x2="15.5" y2="3.5" stroke="#074A37" stroke-linecap="round"/>
<line x1="6.5" y1="9.5" x2="13.5" y2="9.5" stroke="#074A37" stroke-linecap="round"/>
<line x1="7.5" y1="11.5" x2="14.5" y2="11.5" stroke="#074A37" stroke-linecap="round"/>
<line x1="6.5" y1="13.5" x2="15.5" y2="13.5" stroke="#074A37" stroke-linecap="round"/>
<mask id="path-8-outside-1_1080_8642" maskUnits="userSpaceOnUse" x="0" y="3" width="12" height="12" fill="black">
<rect fill="white" y="3" width="12" height="12"/>
<path fill-rule="evenodd" clip-rule="evenodd" d="M10 12.2966L7.44044 9.73707C7.8934 9.13729 8.162 8.39052 8.162 7.581C8.162 5.60327 6.55874 4 4.581 4C2.60327 4 1 5.60327 1 7.581C1 9.55874 2.60327 11.162 4.581 11.162C5.39052 11.162 6.13729 10.8934 6.73707 10.4404L9.29662 13L10 12.2966ZM7.16713 7.58101C7.16713 9.00938 6.00922 10.1673 4.58085 10.1673C3.15249 10.1673 1.99457 9.00938 1.99457 7.58101C1.99457 6.15265 3.15249 4.99473 4.58085 4.99473C6.00922 4.99473 7.16713 6.15265 7.16713 7.58101Z"/>
</mask>
<path fill-rule="evenodd" clip-rule="evenodd" d="M10 12.2966L7.44044 9.73707C7.8934 9.13729 8.162 8.39052 8.162 7.581C8.162 5.60327 6.55874 4 4.581 4C2.60327 4 1 5.60327 1 7.581C1 9.55874 2.60327 11.162 4.581 11.162C5.39052 11.162 6.13729 10.8934 6.73707 10.4404L9.29662 13L10 12.2966ZM7.16713 7.58101C7.16713 9.00938 6.00922 10.1673 4.58085 10.1673C3.15249 10.1673 1.99457 9.00938 1.99457 7.58101C1.99457 6.15265 3.15249 4.99473 4.58085 4.99473C6.00922 4.99473 7.16713 6.15265 7.16713 7.58101Z" fill="#074A37"/>
<path d="M7.44044 9.73707L6.64244 9.13441L6.11801 9.82884L6.73334 10.4442L7.44044 9.73707ZM10 12.2966L10.7071 13.0037L11.4142 12.2966L10.7071 11.5895L10 12.2966ZM6.73707 10.4404L7.44418 9.73334L6.82884 9.11801L6.13441 9.64244L6.73707 10.4404ZM9.29662 13L8.58952 13.7071L9.29662 14.4142L10.0037 13.7071L9.29662 13ZM6.73334 10.4442L9.29289 13.0037L10.7071 11.5895L8.14755 9.02996L6.73334 10.4442ZM7.162 7.581C7.162 8.16559 6.96885 8.7022 6.64244 9.13441L8.23845 10.3397C8.81794 9.57239 9.162 8.61544 9.162 7.581H7.162ZM4.581 5C6.00645 5 7.162 6.15555 7.162 7.581H9.162C9.162 5.05098 7.11102 3 4.581 3V5ZM2 7.581C2 6.15555 3.15555 5 4.581 5V3C2.05098 3 0 5.05098 0 7.581H2ZM4.581 10.162C3.15555 10.162 2 9.00645 2 7.581H0C0 10.111 2.05098 12.162 4.581 12.162V10.162ZM6.13441 9.64244C5.7022 9.96885 5.16559 10.162 4.581 10.162V12.162C5.61544 12.162 6.57239 11.8179 7.33972 11.2384L6.13441 9.64244ZM10.0037 12.2929L7.44418 9.73334L6.02996 11.1476L8.58952 13.7071L10.0037 12.2929ZM9.29289 11.5895L8.58952 12.2929L10.0037 13.7071L10.7071 13.0037L9.29289 11.5895ZM4.58085 11.1673C6.5615 11.1673 8.16713 9.56166 8.16713 7.58101H6.16713C6.16713 8.45709 5.45693 9.16729 4.58085 9.16729V11.1673ZM0.994573 7.58101C0.994573 9.56166 2.60021 11.1673 4.58085 11.1673V9.16729C3.70477 9.16729 2.99457 8.45709 2.99457 7.58101H0.994573ZM4.58085 3.99473C2.60021 3.99473 0.994573 5.60036 0.994573 7.58101H2.99457C2.99457 6.70493 3.70477 5.99473 4.58085 5.99473V3.99473ZM8.16713 7.58101C8.16713 5.60036 6.5615 3.99473 4.58085 3.99473V5.99473C5.45693 5.99473 6.16713 6.70493 6.16713 7.58101H8.16713Z" fill="#EBF2E4" mask="url(#path-8-outside-1_1080_8642)"/>
</svg>
