<svg width="21" height="19" viewBox="0 0 21 19" fill="none" xmlns="http://www.w3.org/2000/svg">
<path d="M10.4413 18.9917C7.9664 18.9917 5.49153 18.9961 3.01755 18.9899C1.54313 18.9863 0.44931 18.1655 0.0909304 16.8254C0.0126737 16.5328 0.0206772 16.2384 0.0206772 15.9441C0.0162308 11.648 0.051802 7.35097 0.000223722 3.05486C-0.0193405 1.367 1.24611 -0.0345043 3.06291 0.00106694C4.48487 0.0295239 5.90772 0.0197418 7.32967 0.000177663C7.87658 -0.00693658 8.25364 0.199377 8.53999 0.660913C8.92949 1.28786 9.36257 1.88812 9.75652 2.5124C9.91481 2.76317 10.09 2.86188 10.3968 2.8601C12.901 2.84588 15.4052 2.84588 17.9094 2.85477C19.3465 2.8601 20.4395 3.69692 20.7934 5.01928C20.8716 5.31185 20.8636 5.6062 20.8636 5.90056C20.8672 9.2487 20.8263 12.5977 20.8832 15.945C20.9117 17.5821 19.6764 19.0254 17.8196 18.9997C15.3608 18.9668 12.901 18.9917 10.4413 18.9917ZM10.4582 17.0753C12.917 17.0753 15.375 17.0779 17.8339 17.0744C18.6547 17.0735 18.9775 16.7391 18.9775 15.9112C18.9784 12.6235 18.9775 9.33674 18.9775 6.04907C18.9775 5.03706 18.7062 4.76761 17.6853 4.76761C15.0344 4.76672 12.3835 4.76228 9.73251 4.77206C9.22829 4.77384 8.85835 4.60576 8.58534 4.16824C8.17983 3.51728 7.73163 2.89212 7.32078 2.24383C7.17138 2.00728 7.00865 1.91035 6.71785 1.9148C5.51821 1.93436 4.31857 1.92102 3.11893 1.92369C2.2003 1.92547 1.90684 2.22338 1.90684 3.15001C1.90684 7.38476 1.90684 11.6195 1.90684 15.8543C1.90684 16.7711 2.20742 17.0744 3.12693 17.0744C5.57068 17.077 8.01442 17.0753 10.4582 17.0753Z" fill="white"/>
<path d="M12.4306 12.3443C12.1434 12.3718 11.6845 12.194 11.4702 12.411C11.2567 12.6253 11.4204 13.0833 11.407 13.4336C11.3972 13.6995 11.4195 13.9672 11.399 14.2322C11.3554 14.8058 10.9579 15.1918 10.4368 15.1891C9.91748 15.1864 9.51731 14.7969 9.48796 14.2198C9.46306 13.7324 9.46217 13.2425 9.48796 12.756C9.50397 12.443 9.44527 12.3078 9.08867 12.3354C8.60312 12.3727 8.11224 12.3505 7.62403 12.3434C7.07445 12.3354 6.65115 11.9272 6.6387 11.4079C6.62714 10.9152 7.02554 10.4866 7.55911 10.4626C8.0909 10.4385 8.62447 10.4412 9.15715 10.4554C9.40259 10.4626 9.49596 10.3976 9.48529 10.1389C9.46662 9.65153 9.47284 9.16243 9.48173 8.67422C9.49329 8.03215 9.8659 7.62131 10.4261 7.6133C11.006 7.6053 11.391 8.02148 11.4035 8.68578C11.4124 9.15887 11.4195 9.63286 11.3999 10.106C11.3884 10.3719 11.4586 10.4706 11.7405 10.4563C12.2278 10.4332 12.7169 10.4412 13.2052 10.4528C13.8312 10.4679 14.2661 10.8796 14.2447 11.4194C14.2234 11.9717 13.7903 12.3407 13.1607 12.3443C12.9384 12.3452 12.716 12.3443 12.4306 12.3443Z" fill="white"/>
</svg>
