<svg width="13" height="13" viewBox="0 0 13 13" fill="none" xmlns="http://www.w3.org/2000/svg">
<path d="M12.5687 6.71111C12.5725 10.1706 9.75616 12.9988 6.3067 13C2.81506 13.0009 0.00250172 10.1959 1.66745e-06 6.70955C-0.00249839 3.22728 2.80663 0.405654 6.27702 0.405029C9.76178 0.404404 12.565 3.21384 12.5687 6.71111ZM6.26764 8.05614C6.92891 8.05614 7.59017 8.05426 8.25144 8.05801C8.35081 8.05864 8.39363 8.03739 8.41394 7.92864C8.56832 7.11112 8.56832 6.2961 8.41394 5.47858C8.39394 5.37233 8.35425 5.3467 8.25269 5.34702C6.94047 5.35014 5.62856 5.35014 4.31635 5.34702C4.21603 5.3467 4.17447 5.36952 4.15384 5.47702C3.99915 6.29422 3.99822 7.10924 4.15416 7.92645C4.17447 8.0327 4.21322 8.05864 4.31479 8.05801C4.96605 8.05395 5.617 8.05614 6.26764 8.05614ZM10.408 8.05583C10.7306 8.05583 11.0537 8.04676 11.3756 8.06083C11.4881 8.06583 11.5103 8.02301 11.5306 7.93551C11.6118 7.5855 11.6593 7.23081 11.6718 6.87205C11.6887 6.39173 11.6371 5.91765 11.5228 5.45108C11.5128 5.41014 11.5303 5.3417 11.4306 5.34264C10.7596 5.35045 10.0884 5.35014 9.4174 5.34733C9.31802 5.34702 9.30709 5.38233 9.3224 5.46702C9.47053 6.28829 9.47021 7.11018 9.32365 7.93145C9.3074 8.02208 9.31615 8.06114 9.4249 8.05895C9.75241 8.05176 10.0802 8.05614 10.408 8.05583ZM2.13567 8.05801C2.13567 8.05739 2.13567 8.05676 2.13567 8.05614C2.46349 8.05614 2.79131 8.0502 3.11851 8.05926C3.24632 8.0627 3.25882 8.02458 3.23882 7.90895C3.10038 7.1083 3.10163 6.30547 3.23695 5.50483C3.2582 5.37827 3.24351 5.34514 3.11038 5.34639C2.47599 5.35295 1.84129 5.35483 1.2069 5.34452C1.09221 5.34264 1.05721 5.37514 1.03534 5.47358C0.968773 5.77328 0.92221 6.07516 0.906897 6.38204C0.880646 6.90893 0.915335 7.43113 1.04346 7.94395C1.05315 7.98301 1.02096 8.0677 1.13721 8.06301C1.46972 8.04989 1.80285 8.05801 2.13567 8.05801ZM8.12925 8.96741C8.09456 8.96303 8.06987 8.9571 8.04487 8.9571C6.87922 8.95647 5.71357 8.95835 4.54792 8.95428C4.42104 8.95397 4.44448 9.00241 4.47479 9.08179C4.84949 10.0706 5.42387 10.9246 6.19358 11.65C6.27077 11.7225 6.30952 11.7115 6.37889 11.6462C6.95672 11.1034 7.42767 10.4803 7.78736 9.7743C7.91893 9.51617 8.04424 9.25429 8.12925 8.96741ZM6.27514 4.45106C6.84265 4.45106 7.40986 4.44606 7.97737 4.4545C8.13143 4.45668 8.13175 4.40981 8.08487 4.29012C7.70299 3.31634 7.13641 2.46883 6.37233 1.75256C6.30421 1.6885 6.26827 1.68475 6.19827 1.75068C5.42762 2.47539 4.85324 3.32947 4.47541 4.31762C4.43073 4.43481 4.45823 4.45387 4.57323 4.45293C5.14043 4.44856 5.70763 4.45106 6.27514 4.45106ZM5.26168 1.40536C5.02386 1.4463 4.8298 1.5013 4.63823 1.56474C3.20476 2.04069 2.15005 2.95727 1.46285 4.29918C1.38691 4.44762 1.39097 4.45075 1.56254 4.45075C2.14567 4.45106 2.72913 4.44668 3.31226 4.4545C3.4382 4.45606 3.49508 4.41949 3.53227 4.30012C3.73009 3.66667 4.02165 3.07696 4.38229 2.5207C4.63448 2.13163 4.92417 1.77194 5.26168 1.40536ZM5.25356 12.0031C5.08105 11.7978 4.92261 11.6193 4.77542 11.4318C4.22135 10.7268 3.80196 9.94899 3.52446 9.09522C3.50133 9.02429 3.49133 8.95178 3.37695 8.95303C2.75225 8.9596 2.12755 8.95772 1.50285 8.95491C1.4016 8.95428 1.40441 8.98866 1.44066 9.06304C1.59347 9.37742 1.77348 9.67493 1.98536 9.95243C2.81069 11.0334 3.89165 11.7093 5.25356 12.0031ZM7.33142 1.40693C7.34392 1.4388 7.34517 1.45099 7.35173 1.45787C8.13643 2.2932 8.70238 3.25791 9.05645 4.34637C9.08583 4.43668 9.13114 4.45262 9.21365 4.45231C9.81741 4.4495 10.4215 4.447 11.0252 4.45356C11.1649 4.45512 11.1693 4.41949 11.1137 4.30824C10.7827 3.64885 10.3412 3.07603 9.78053 2.59633C9.07208 1.98975 8.258 1.59787 7.33142 1.40693ZM7.30829 11.9984C7.55048 11.9597 7.74955 11.9015 7.94549 11.8359C9.36021 11.3622 10.404 10.4549 11.0924 9.13491C11.184 8.95928 11.1799 8.9571 10.9899 8.9571C10.4121 8.9571 9.83397 8.96241 9.25646 8.95303C9.11958 8.95085 9.06989 8.99929 9.03145 9.12085C8.83457 9.74305 8.54769 10.3234 8.19394 10.8718C7.93956 11.2656 7.64611 11.6284 7.30829 11.9984Z" fill="#EBF2E4"/>
</svg>
