<?xml version="1.0" encoding="utf-8"?>
<!-- Generator: Adobe Illustrator 24.1.1, SVG Export Plug-In . SVG Version: 6.00 Build 0)  -->
<svg version="1.1" id="Layer_1" xmlns="http://www.w3.org/2000/svg" xmlns:xlink="http://www.w3.org/1999/xlink" x="0px" y="0px"
	 viewBox="0 0 45.6 52.1" style="enable-background:new 0 0 45.6 52.1;" xml:space="preserve">
<g>
	<path d="M41.5,15.5c0,3.2-0.8,5.1-2.3,6.7c-2.2,2.2-4.4,4.5-6.7,6.7c-0.6,0.6-0.5,0.8,0,1.4c4,4,8,8,12,12c0.7,0.7,0.7,1.1,0,1.7
		c-1.2,1.1-1.1,1.1-2.2,0c-3.9-3.9-7.8-7.8-11.7-11.8c-0.5-0.5-0.8-0.6-1.4,0c-2.1,2.2-4.3,4.4-6.5,6.5c-3.3,3.3-8.2,3.4-11.5,0.1
		c-2.6-2.5-5.1-5-7.6-7.6c-3.2-3.3-3.4-8-0.2-11.3C8.9,14.2,14.5,8.6,20.2,3c3.3-3.2,8.1-3,11.3,0.3c2.5,2.5,5,5,7.5,7.5
		C40.7,12.4,41.5,14.3,41.5,15.5z M33.7,23.6c-0.2-0.2-0.4-0.4-0.6-0.6c-4.6-4.6-9.2-9.2-13.8-13.9c-0.5-0.5-0.8-0.6-1.3,0
		c-2.8,2.9-5.7,5.8-8.6,8.6c-0.5,0.5-0.5,0.7,0,1.2c4.7,4.6,9.3,9.3,13.9,13.9c0.4,0.4,0.7,0.6,1.2,0.1c2.9-2.9,5.8-5.8,8.7-8.7
		C33.4,24,33.5,23.8,33.7,23.6z M25.7,3.6c-1.8-0.1-3.1,1-4.4,2.2c-0.6,0.6-0.6,0.9,0,1.5c2.8,2.7,5.5,5.4,8.2,8.2
		c1.9,1.9,3.8,3.8,5.7,5.6c0.2,0.2,0.4,0.7,0.8,0.3c2.9-2.4,3.8-5.7,1.2-8.5c-2.5-2.7-5.2-5.3-7.8-7.9C28.4,4.1,27.2,3.5,25.7,3.6z
		 M3.8,25.2c0,1.6,0.5,2.9,1.5,3.9c2.6,2.6,5.2,5.2,7.8,7.8c0.3,0.3,0.7,0.6,1.1,0.9c2.5,1.4,5.7,0.5,7.4-2c0.3-0.4,0.1-0.6-0.2-0.8
		c-0.7-0.7-1.4-1.4-2-2c-4-4-8-8-12-12c-0.2-0.2-0.4-0.9-0.9-0.4C5.1,21.9,3.8,23.2,3.8,25.2z"/>
	<path d="M17.5,51.4c-4.5,0-8.9-0.1-13.4,0c-1.4,0-1-0.8-1.1-1.5c-0.1-0.8,0-1.4,1.1-1.4c8.9,0.1,17.8,0.1,26.7,0
		c1.4,0,1,0.8,1.1,1.5c0.1,0.8,0,1.4-1.1,1.4C26.3,51.4,21.9,51.4,17.5,51.4z"/>
</g>
</svg>
