<svg width="25" height="25" viewBox="0 0 25 25" fill="none" xmlns="http://www.w3.org/2000/svg">
<path d="M25 7.85195C25 8.11164 25 8.37133 25 8.63125C24.9784 8.82075 24.9595 9.01047 24.9351 9.1995C24.718 10.8751 24.0397 12.3236 22.883 13.5195C19.4567 17.0623 16.0222 20.5965 12.5917 24.1352C12.5632 24.1646 12.5474 24.2065 12.5258 24.2428C12.5091 24.2412 12.4924 24.2398 12.4758 24.2382C12.4502 24.2003 12.4295 24.1577 12.3984 24.1256C11.3148 23.0067 10.2298 21.8893 9.14578 20.7709C6.8208 18.372 4.48625 15.9827 2.17417 13.5704C0.363928 11.6819 -0.330097 9.40069 0.145488 6.79346C0.846186 2.95269 4.36814 0.339027 8.12788 0.813216C9.47923 0.983667 10.6909 1.50236 11.7586 2.37159C12.0166 2.5815 12.2551 2.81665 12.5096 3.04651C12.5292 3.02747 12.5552 3.00178 12.5819 2.97655C12.7707 2.79921 12.9505 2.60995 13.1498 2.44638C14.8292 1.06901 16.736 0.526225 18.8579 0.85061C20.3218 1.07428 21.602 1.72305 22.6828 2.76664C23.9507 3.99076 24.6979 5.49844 24.9335 7.27384C24.9593 7.46608 24.978 7.65925 25 7.85195Z" fill="#EBF2E4"/>
</svg>
