<?xml version="1.0" encoding="utf-8"?>
<!-- Generator: Adobe Illustrator 24.1.1, SVG Export Plug-In . SVG Version: 6.00 Build 0)  -->
<svg version="1.1" id="Layer_1" xmlns="http://www.w3.org/2000/svg" xmlns:xlink="http://www.w3.org/1999/xlink" x="0px" y="0px"
	 viewBox="0 0 512 512" style="enable-background:new 0 0 512 512;" xml:space="preserve">
<style type="text/css">
	.st0{fill:#074A37;}
</style>
<g>
	<g>
		<path class="st0" d="M231.6,12.9c39.1-3.3,79.1,3,115.3,18.2c52.5,21.8,96.9,62.3,123.5,112.5c22.2,41.5,31.9,89.5,27.8,136.4
			c-3.4,40.2-16.9,79.5-38.9,113.3c-21.4,33.2-50.9,61.2-85.2,80.8c-35.8,20.6-76.8,31.9-118.1,32.5c-43.9,0.5-88-10.9-126-32.8
			C75.7,443,34,390.8,16,331c-11.9-39.2-14-81.4-5.8-121.5C21,156.1,50.4,107,91.7,71.7C130.6,38,180.3,16.9,231.6,12.9z
			 M231.5,40.8c-34.4,3.2-68,14.9-97.1,33.6c-27.4,17.6-50.8,41.4-68,69c-17.8,28.5-29,61.2-32.3,94.6c-4.2,40.4,3.4,82,21.6,118.3
			c14,28,34,52.9,58.3,72.7c39.9,32.7,91.5,50.7,143.1,49.7c20.3-0.5,40.5-3.8,59.8-9.9c35.9-11.2,68.8-32,94.5-59.5
			c27.5-29.3,46.9-66.2,55.1-105.5c10.5-49.1,3.3-101.8-20.3-146.2c-23-44.1-61.4-80-107-99.8C305.5,43.1,268,37.3,231.5,40.8z"/>
	</g>
	<path class="st0" d="M243.5,125.7c16.6-2.2,33.8,1.9,47.7,11.1c12.9,8.4,22.9,21.4,27.1,36.3c5.1,18.8,3.9,39.4-4.1,57.2
		c-6.3,14.3-17.7,26.3-31.8,33.3c-3.9,2.1-8.1,3.5-12.2,5c-3.7,1.5-5.8,5.5-5.5,9.4c0,11.4,0.3,22.8-0.1,34.1
		c-0.6,7.7-8.1,14.2-15.8,12.7c-6.7-0.9-11.4-7.4-11.5-13.9c-0.1-16.7,0-33.3,0-49.9c0-4.6,0.9-9.8,4.8-12.8
		c5-3.9,11.7-3.7,17.4-5.7c12.2-3.5,23.1-11.8,28.9-23.1c7.2-14.2,7.1-32.1-0.7-46.1c-4.8-8.5-13.1-14.5-22.2-17.7
		c-21.4-7.5-48.3,5.5-54,27.9c-2.5,7-0.3,15.6-5.7,21.4c-5.4,6.9-17.5,5.6-21.7-2c-3.3-6.1-1.8-13.4-1-20
		C187.9,153.4,213.9,129.4,243.5,125.7z"/>
	<path class="st0" d="M246.3,359.5c11.5-4.1,24.7,5.3,25.3,17.3c1.3,12-10.8,23.2-22.7,20.8c-10.9-1.8-18.8-13.8-15.6-24.5
		C235.1,366.8,240.1,361.5,246.3,359.5z"/>
</g>
</svg>
