<svg width="33" height="27" viewBox="0 0 33 27" fill="none" xmlns="http://www.w3.org/2000/svg">
<path d="M13.7948 26.6709C10.1852 26.6709 6.57484 26.6709 2.96531 26.6709C2.59005 26.6709 2.21567 26.6692 1.84735 26.5721C0.770985 26.2879 0.00661236 25.3476 0.00574572 24.2331C-0.00118736 18.4873 -0.00292063 12.7415 0.00661236 6.99571C0.00834563 5.66975 1.06044 4.61419 2.39506 4.56999C3.13083 4.54573 3.86834 4.55179 4.60412 4.56653C4.86237 4.57173 4.96377 4.51193 4.95077 4.23374C4.92824 3.75882 4.94124 3.28131 4.94557 2.80466C4.95944 1.08178 5.94827 0.0894865 7.66681 0.0886199C12.5754 0.0860199 17.4849 0.0868866 22.3944 0.0868866C24.7049 0.0868866 27.0153 0.0860199 29.3249 0.0877532C31.1024 0.0886199 32.0669 1.04019 32.0678 2.80986C32.0713 8.28093 32.0721 13.7529 32.0695 19.2239C32.0687 20.8255 31.0582 21.8464 29.4575 21.8767C28.9956 21.8854 28.5302 21.9114 28.0726 21.8689C27.6514 21.8299 27.5708 21.998 27.5925 22.3716C27.622 22.8898 27.6003 23.4107 27.6003 23.9306C27.6003 25.6084 26.5551 26.6692 24.8843 26.6701C21.1872 26.6735 17.491 26.6709 13.7948 26.6709ZM1.56049 19.8661C3.2643 18.2724 4.88837 16.7549 6.50985 15.2348C7.03676 14.7417 7.40681 14.7348 7.9346 15.2218C8.91043 16.1214 9.89926 17.0088 10.856 17.9292C11.1351 18.1978 11.2876 18.1666 11.5502 17.9223C13.6535 15.9671 15.7698 14.0267 17.8827 12.0811C18.4538 11.5551 18.836 11.5594 19.3577 12.1028C21.4671 14.2988 23.5748 16.4966 25.6868 18.6901C25.7864 18.7941 25.8653 18.944 26.056 18.9665C26.056 15.0572 26.0568 11.1755 26.0551 7.2947C26.0551 6.43933 25.7344 6.12474 24.8765 6.12474C17.4849 6.12474 10.0934 6.12474 2.70185 6.12474C1.87161 6.12474 1.56049 6.43933 1.56049 7.2791C1.55962 11.3202 1.56049 15.3622 1.56049 19.4033C1.56049 19.5273 1.56049 19.6512 1.56049 19.8661ZM13.7887 25.0997C17.4693 25.0997 21.1508 25.0997 24.8314 25.0997C25.711 25.0997 26.0239 24.8007 26.0438 23.9098C26.0603 23.1888 26.0395 22.466 26.0611 21.745C26.0698 21.4443 25.9667 21.2345 25.7622 21.0222C23.4456 18.626 21.1326 16.2254 18.8334 13.8118C18.6089 13.5761 18.5006 13.6185 18.2952 13.8083C16.412 15.5546 14.5262 17.2974 12.6248 19.0237C12.3579 19.2655 12.4212 19.3747 12.6474 19.5732C13.2549 20.1062 13.8468 20.6565 14.4352 21.2103C14.8096 21.5621 14.827 22.0015 14.5028 22.3568C14.203 22.6853 13.7809 22.687 13.3866 22.3603C13.3199 22.3048 13.2566 22.2459 13.1925 22.187C11.3015 20.4485 9.40701 18.7152 7.52468 16.9672C7.30282 16.761 7.19362 16.728 6.95183 16.9577C5.41442 18.4197 3.87874 19.8834 2.29366 21.2917C1.73815 21.7848 1.43396 22.284 1.55269 23.0293C1.59516 23.2971 1.55962 23.577 1.55962 23.8509C1.55962 24.7955 1.85688 25.098 2.78851 25.0989C6.45612 25.1006 10.1229 25.0997 13.7887 25.0997ZM18.5015 1.65723C15.8149 1.65723 13.1292 1.65723 10.4426 1.65723C9.46074 1.65723 8.47884 1.64943 7.49695 1.65983C6.84524 1.66676 6.51071 2.00995 6.50378 2.65213C6.49945 3.12878 6.53411 3.60803 6.49338 4.08121C6.45872 4.49546 6.61384 4.56999 6.99516 4.56913C12.9455 4.55786 18.8949 4.56046 24.8453 4.56306C25.0897 4.56306 25.3401 4.56046 25.5767 4.61072C26.8706 4.88372 27.5968 5.86995 27.5977 7.34149C27.5994 11.5143 27.5994 15.6872 27.5951 19.86C27.5951 20.1478 27.5882 20.3618 27.9929 20.3228C28.4219 20.2821 28.8587 20.3124 29.292 20.3142C30.2132 20.3185 30.5087 20.0256 30.5087 19.1017C30.5087 13.687 30.5087 8.27226 30.5087 2.85752C30.5087 1.92589 30.2357 1.65636 29.2902 1.65636C25.6937 1.65636 22.098 1.65723 18.5015 1.65723Z" fill="#074A37"/>
<path d="M11.3777 13.3647C9.97466 13.3681 8.84716 12.2675 8.8541 10.9C8.86103 9.51421 9.97466 8.39192 11.3483 8.38759C12.6777 8.38325 13.826 9.52721 13.839 10.8705C13.852 12.2164 12.7228 13.3612 11.3777 13.3647ZM11.2989 11.7943C11.8258 11.8221 12.2461 11.4416 12.2764 10.9104C12.3042 10.4216 11.8761 9.97266 11.3604 9.95186C10.8812 9.9328 10.4331 10.3462 10.4097 10.8289C10.3846 11.3636 10.7546 11.7657 11.2989 11.7943Z" fill="#074A37"/>
</svg>
