<svg width="31" height="31" viewBox="0 0 31 31" fill="none" xmlns="http://www.w3.org/2000/svg">
<path d="M24.1621 1.39015C24.1901 1.3621 24.2123 1.34934 24.2224 1.34473C24.8855 1.38273 26.3541 1.63061 27.7307 3.00705C29.1071 4.3835 29.3549 5.85221 29.3929 6.51527C29.3883 6.52537 29.3756 6.54754 29.3475 6.57561L19.9725 15.9505C19.9101 16.013 19.8253 16.0481 19.7369 16.0481H15.0228C14.8388 16.0481 14.6895 15.8989 14.6895 15.7148V11.0008C14.6895 10.9124 14.7247 10.8276 14.7871 10.7651L24.1621 1.39015Z" stroke="#074A37" stroke-width="1.5" stroke-linejoin="round"/>
<path d="M21.6768 4.00977L24.0338 6.36679" stroke="#074A37" stroke-width="1.5" stroke-linecap="round"/>
<path d="M11.1675 18.4987C11.6271 18.8051 12.2479 18.681 12.5543 18.2214C12.8606 17.7619 12.7364 17.141 12.2769 16.8347L11.1675 18.4987ZM4.38859 13.6669L4.76009 14.5953L4.38859 13.6669ZM23.2078 23.8575C23.6814 24.1417 24.2956 23.9881 24.5798 23.5146C24.8639 23.041 24.7103 22.4267 24.2367 22.1426L23.2078 23.8575ZM11.2191 15.7498C10.875 15.3178 10.2459 15.2465 9.8139 15.5906C9.3819 15.9346 9.31063 16.5638 9.65471 16.9958L11.2191 15.7498ZM6.17623 14.2781C6.7285 14.2734 7.17247 13.8221 7.16786 13.2698C7.16325 12.7175 6.71182 12.2735 6.15955 12.2781L6.17623 14.2781ZM2.63229 13.7031C2.24489 14.0967 2.24993 14.7299 2.64355 15.1173C3.03717 15.5047 3.67031 15.4997 4.05771 15.1061L2.63229 13.7031ZM2.44101 18.061C2.60578 17.5339 2.31203 16.973 1.7849 16.8082C1.25777 16.6435 0.696868 16.9373 0.532094 17.4643L2.44101 18.061ZM0.0029152 20.2149C-0.0388808 20.7657 0.373669 21.2459 0.924369 21.2878C1.47507 21.3295 1.95538 20.917 1.99718 20.3663L0.0029152 20.2149ZM2.40637 23.7687C2.22135 23.2483 1.64953 22.9765 1.12915 23.1614C0.608781 23.3465 0.336919 23.9183 0.521935 24.4387L2.40637 23.7687ZM1.95727 26.9758C2.31021 27.4006 2.94069 27.4589 3.36549 27.1059C3.7903 26.753 3.84855 26.1226 3.49563 25.6978L1.95727 26.9758ZM6.22022 27.651C5.71097 27.4373 5.12489 27.6769 4.91117 28.1861C4.69746 28.6954 4.93705 29.2815 5.44631 29.4951L6.22022 27.651ZM8.10755 30.2658C8.65185 30.3594 9.16899 29.9941 9.26266 29.4498C9.35631 28.9055 8.99101 28.3885 8.44673 28.2947L8.10755 30.2658ZM11.7867 28.2426C11.2467 28.3581 10.9025 28.8895 11.018 29.4297C11.1335 29.9697 11.6649 30.3139 12.205 30.1983L11.7867 28.2426ZM14.7812 29.3067C15.279 29.0677 15.4888 28.4703 15.2498 27.9725C15.0107 27.4746 14.4132 27.2649 13.9154 27.5039L14.7812 29.3067ZM16.863 25.5905C16.4308 25.9343 16.3591 26.5634 16.703 26.9955C17.0468 27.4278 17.6759 27.4994 18.1082 27.1555L16.863 25.5905ZM20.046 25.5246C20.4654 25.1651 20.5138 24.5338 20.1543 24.1145C19.7947 23.6953 19.1635 23.6469 18.7442 24.0063L20.046 25.5246ZM22.3554 21.7898C21.8108 21.8818 21.4439 22.3978 21.5359 22.9423C21.6279 23.487 22.1439 23.8538 22.6884 23.7618L22.3554 21.7898ZM12.2769 16.8347C11.9576 16.6218 11.6289 16.2642 11.2191 15.7498L9.65471 16.9958C10.0705 17.5178 10.5652 18.0973 11.1675 18.4987L12.2769 16.8347ZM6.15955 12.2781C5.48807 12.2837 4.77677 12.4345 4.0171 12.7383L4.76009 14.5953C5.33175 14.3665 5.79619 14.2813 6.17623 14.2781L6.15955 12.2781ZM4.0171 12.7383C3.50058 12.945 3.03602 13.2929 2.63229 13.7031L4.05771 15.1061C4.32969 14.8297 4.57089 14.671 4.76009 14.5953L4.0171 12.7383ZM0.532094 17.4643C0.262753 18.3259 0.0755565 19.2578 0.0029152 20.2149L1.99718 20.3663C2.05779 19.5677 2.21465 18.7851 2.44101 18.061L0.532094 17.4643ZM0.521935 24.4387C0.840396 25.3343 1.30901 26.1955 1.95727 26.9758L3.49563 25.6978C3.00897 25.1119 2.65231 24.4605 2.40637 23.7687L0.521935 24.4387ZM5.44631 29.4951C5.86554 29.6711 6.31025 29.827 6.78115 29.9615L7.33059 28.0385C6.93237 27.9247 6.56285 27.7947 6.22022 27.651L5.44631 29.4951ZM6.78115 29.9615C7.23239 30.0905 7.67443 30.1913 8.10755 30.2658L8.44673 28.2947C8.08646 28.2327 7.71461 28.1482 7.33059 28.0385L6.78115 29.9615ZM12.205 30.1983C13.1311 30.0003 13.9879 29.6877 14.7812 29.3067L13.9154 27.5039C13.2443 27.8262 12.5374 28.0821 11.7867 28.2426L12.205 30.1983ZM18.1082 27.1555C18.8123 26.5954 19.466 26.0219 20.046 25.5246L18.7442 24.0063C18.1419 24.5227 17.5296 25.0601 16.863 25.5905L18.1082 27.1555ZM22.6884 23.7618C22.8815 23.7293 23.0355 23.7542 23.2078 23.8575L24.2367 22.1426C23.6318 21.7795 22.9904 21.6825 22.3554 21.7898L22.6884 23.7618Z" fill="#074A37"/>
</svg>
