<svg width="35" height="21" viewBox="0 0 35 21" fill="none" xmlns="http://www.w3.org/2000/svg">
<path d="M1.58338 11.7313C0.674149 11.6539 -0.0142253 11.013 0.000223303 10.176C0.00847967 9.69716 0.243786 9.19146 0.620483 8.89216C1.24074 8.40091 2.20158 8.60525 2.93433 8.60525C3.9509 8.60525 4.96746 8.60629 5.98403 8.60732C9.96979 8.60732 13.9555 8.60835 17.9413 8.60732C21.1293 8.60629 24.3163 8.60628 27.5042 8.60525C29.0977 8.60525 30.6922 8.60422 32.2857 8.60422C33.0123 8.60422 33.7234 8.47315 34.3354 8.92416C34.7884 9.25854 35 9.67342 35 10.2287C34.902 11.0657 34.2869 11.6508 33.485 11.7313C33.4457 11.7324 33.4065 11.7324 33.3673 11.7334C29.7747 11.7303 26.1812 11.7241 22.5886 11.7241C15.6264 11.7251 8.66425 11.7303 1.70207 11.7334C1.66182 11.7334 1.6226 11.7324 1.58338 11.7313Z" fill="#4C94A0"/>
<path d="M5.61443 3.17457C4.80324 3.06827 4.41003 2.67506 4.24078 1.79782C4.24078 1.65953 4.23975 1.52227 4.23975 1.38397C4.40694 0.54492 4.84762 0.13107 5.71867 0C5.87244 0.00722432 6.02622 0.021673 6.17999 0.021673C15.1247 0.022705 24.0684 0.022705 33.0132 0.021673C33.167 0.021673 33.3207 0.00825637 33.4745 0.00103205C34.3383 0.124878 34.7718 0.528408 34.971 1.3912C34.971 1.52433 34.9699 1.65747 34.9699 1.7906C34.8317 2.57805 34.3146 2.98674 33.5787 3.17457C31.8274 3.17148 30.077 3.16529 28.3256 3.16529C20.7566 3.16838 13.1855 3.17148 5.61443 3.17457Z" fill="#4C94A0"/>
<path d="M23.9428 20.2745C20.8487 20.2745 17.7546 20.2539 14.6606 20.2879C13.8143 20.2972 13.2972 19.6749 13.1465 18.8379C13.0175 18.1186 13.7647 17.3507 14.3045 17.1908C14.545 17.1195 14.8092 17.103 15.062 17.103C21.0778 17.0989 27.0947 17.0989 33.1104 17.0999C34.385 17.0999 35.0951 17.8698 34.9217 19.0495C34.8267 19.6966 34.2189 20.2559 33.5315 20.2683C32.3808 20.29 31.228 20.2807 30.0773 20.2817C28.0317 20.2828 25.9862 20.2817 23.9407 20.2817C23.9428 20.2797 23.9428 20.2776 23.9428 20.2745Z" fill="#4C94A0"/>
<path d="M33.3665 11.7333C33.4057 11.7322 33.4449 11.7322 33.4841 11.7312C33.4459 11.8024 33.4067 11.8034 33.3665 11.7333Z" fill="#B5B5B5"/>
<path d="M1.58325 11.7312C1.62247 11.7322 1.66169 11.7322 1.70091 11.7333C1.65962 11.8045 1.62041 11.8024 1.58325 11.7312Z" fill="#B5B5B5"/>
</svg>
