<svg width="19" height="18" viewBox="0 0 19 18" fill="none" xmlns="http://www.w3.org/2000/svg">
                                <path d="M19.0001 15.5252C15.4865 15.5252 15.0232 12.2433 14.5599 9.0772C14.0579 5.64081 13.5946 2.43608 9.73346 2.43608C5.87235 2.43608 5.40902 5.67942 4.90707 9.0772C4.44374 12.2433 3.98041 15.5252 0.466797 15.5252V14.5214C2.93791 14.5214 3.40124 12.4364 3.90318 8.96136C4.36652 5.60219 4.9843 1.43219 9.73346 1.43219C14.4826 1.43219 15.1004 5.60219 15.5637 8.96136C16.0657 12.4364 16.529 14.5214 19.0001 14.5214V15.5252Z" fill="#074A37" />
                                <path d="M9.73354 17.6875C8.26632 17.6875 7.03076 16.4906 7.03076 14.9847H8.03465C8.03465 15.9114 8.76826 16.645 9.69493 16.645C10.6216 16.645 11.3552 15.9114 11.3552 14.9847H12.3591C12.4363 16.4906 11.2008 17.6875 9.73354 17.6875Z" fill="#074A37" />
                                <path d="M0.466797 14.4828H19.0001V15.5639H0.466797V14.4828Z" fill="#074A37" />
                                <path d="M10.8146 1.39361C10.8146 2.01138 10.3126 2.20444 9.73346 2.20444C9.15429 2.20444 8.65234 1.97277 8.65234 1.39361C8.65234 0.81444 9.15429 0.3125 9.73346 0.3125C10.3126 0.3125 10.8146 0.775829 10.8146 1.39361Z" fill="#074A37" />
                            </svg>