<svg width="10" height="10" viewBox="0 0 10 10" fill="none" xmlns="http://www.w3.org/2000/svg">
<path d="M7.51199 10.0001C7.12675 9.9876 6.63808 9.86815 6.16546 9.68095C5.09001 9.25485 4.12337 8.64868 3.25124 7.89275C2.27211 7.0459 1.45884 6.06177 0.827486 4.92966C0.502891 4.34845 0.224668 3.74585 0.0802055 3.09154C-0.0161027 2.64939 -0.0446385 2.20368 0.0998238 1.7651C0.185431 1.50481 0.326326 1.27482 0.524293 1.08405C0.802517 0.820191 1.07717 0.552764 1.3554 0.290685C1.77452 -0.103325 2.32918 -0.0908446 2.75722 0.296034C3.20487 0.695392 3.61864 1.13041 4.04489 1.55116C4.29993 1.80254 4.44618 2.10028 4.40337 2.46933C4.37484 2.71358 4.26426 2.92217 4.09305 3.09511C3.86833 3.32331 3.63647 3.54438 3.40105 3.76367C3.34933 3.81181 3.34398 3.84569 3.37074 3.9063C3.54017 4.28783 3.78629 4.61766 4.04846 4.93679C4.5728 5.57683 5.17919 6.1206 5.88545 6.55205C6.16724 6.72499 6.16546 6.73034 6.39553 6.50213C6.55961 6.33989 6.7219 6.1723 6.88777 6.01185C7.06433 5.84248 7.2623 5.71055 7.50664 5.66241C7.84907 5.59288 8.14691 5.6945 8.38946 5.93162C8.84425 6.37377 9.29726 6.82126 9.73599 7.28124C10.148 7.71269 10.0267 8.31351 9.70211 8.68077C9.56835 8.83231 9.42567 8.97494 9.2705 9.10509C9.1849 9.17819 9.10464 9.25663 9.03152 9.34399C8.64807 9.80575 8.23608 10.0001 7.51199 10.0001ZM7.57798 9.40639C7.95251 9.40639 8.245 9.34221 8.46793 9.10509C8.72297 8.8341 8.99406 8.58093 9.25624 8.31885C9.48987 8.08708 9.49166 7.84818 9.25802 7.61106C9.11891 7.46843 8.97623 7.32937 8.83533 7.18853C8.56781 6.9211 8.30385 6.65367 8.03276 6.38981C7.82766 6.19013 7.60651 6.19013 7.39428 6.38446C7.36574 6.41121 7.33899 6.43795 7.31224 6.46469C7.08395 6.6929 6.85388 6.92288 6.6256 7.15109C6.40801 7.36681 6.24215 7.38999 5.98532 7.22953C5.82124 7.12613 5.64289 7.05125 5.48238 6.94606C4.85281 6.53601 4.29993 6.04216 3.7952 5.48947C3.39214 5.04911 3.03901 4.57309 2.80537 4.0204C2.68588 3.73515 2.75365 3.53369 2.9534 3.3661C3.22449 3.13968 3.46704 2.88116 3.71495 2.62978C3.87189 2.47111 3.87546 2.29639 3.7417 2.11632C3.71316 2.07888 3.68285 2.04144 3.64896 2.00935C3.40641 1.77402 3.16563 1.53511 2.92665 1.29621C2.73225 1.10188 2.52536 0.925379 2.32205 0.745312C2.26854 0.697175 2.21147 0.657952 2.14013 0.640124C1.9493 0.590204 1.8084 0.691826 1.68534 0.809494C1.43209 1.0484 1.18953 1.30156 0.941629 1.54938C0.806084 1.68487 0.71691 1.84711 0.670539 2.03253C0.606333 2.29639 0.625952 2.56382 0.666972 2.82946C0.750796 3.38214 0.959464 3.89204 1.22164 4.37876C2.3916 6.55027 4.08413 8.15661 6.37234 9.11222C6.77719 9.28159 7.19809 9.39569 7.57798 9.40639Z" fill="#074A37"/>
</svg>
