<svg width="32" height="29" viewBox="0 0 32 29" fill="none" xmlns="http://www.w3.org/2000/svg">
<path d="M-6.10352e-05 11.6781C-6.10352e-05 8.15427 -6.10352e-05 4.63049 -6.10352e-05 1.10671C-6.10352e-05 0.571011 0.214914 0.346296 0.752003 0.346296C4.47406 0.344209 8.19542 0.344209 11.9168 0.346296C12.4066 0.346296 12.6772 0.590491 12.6765 1.00931C12.6758 1.42813 12.4031 1.66884 11.914 1.66884C8.50571 1.67024 5.09672 1.67371 1.68843 1.66258C1.39275 1.66189 1.30162 1.71824 1.30231 2.03618C1.31414 7.36812 1.31275 12.7001 1.30509 18.032C1.3044 18.2964 1.36075 18.3771 1.64112 18.3764C4.81774 18.3652 7.99436 18.3701 11.171 18.3694C11.8437 18.3694 12.488 18.4919 13.0647 18.8508C13.3103 19.0039 13.3416 18.9246 13.3402 18.6839C13.334 17.4552 13.3374 16.2266 13.3374 14.998C13.3374 11.2773 13.3346 7.55665 13.3388 3.83599C13.3402 2.26924 14.1653 1.03088 15.5227 0.525789C15.931 0.373429 16.3547 0.32612 16.7861 0.32612C20.2758 0.325424 23.7655 0.324033 27.2551 0.325424C27.8027 0.325424 28.0316 0.560575 28.0316 1.11575C28.033 4.56996 28.033 8.02417 28.0316 11.4784C28.0316 11.98 27.7748 12.2791 27.3609 12.2757C26.949 12.2715 26.7083 11.9779 26.7083 11.4638C26.7069 8.32263 26.7021 5.18149 26.7146 2.04035C26.716 1.71685 26.6283 1.64102 26.3132 1.64241C23.1713 1.65423 20.0295 1.6765 16.8876 1.63754C15.5345 1.62084 14.6475 2.66023 14.6544 3.87773C14.6857 9.65005 14.6683 15.4224 14.6683 21.1947C14.6683 21.5425 14.6711 21.8897 14.6676 22.2376C14.6614 22.808 14.429 23.0446 13.8655 23.0446C9.49501 23.0467 5.12386 23.0474 0.753395 23.046C0.214218 23.0446 -6.10352e-05 22.822 -6.10352e-05 22.2842C-6.10352e-05 18.7493 -6.10352e-05 15.2137 -6.10352e-05 11.6781ZM7.30839 21.7186C9.19586 21.7186 11.084 21.7102 12.9715 21.7262C13.3103 21.729 13.3548 21.6114 13.3054 21.3206C13.1475 20.3946 12.3551 19.7135 11.3261 19.7093C8.07159 19.6961 4.81705 19.7059 1.5632 19.701C1.36701 19.701 1.30162 19.7553 1.30718 19.9549C1.3197 20.4294 1.32666 20.9053 1.30509 21.3791C1.29257 21.6483 1.36632 21.7283 1.6453 21.7262C3.53276 21.7123 5.42023 21.7186 7.30839 21.7186Z" fill="#074A37"/>
<path d="M23.9887 12.3513C28.3974 12.3409 31.9942 15.9322 31.9998 20.3506C32.0054 24.7705 28.4218 28.3729 24.0144 28.3778C19.605 28.3833 16.0082 24.7914 15.9998 20.3757C15.9915 15.9628 19.5765 12.3618 23.9887 12.3513ZM24.0061 13.6836C20.2799 13.6975 17.3154 16.694 17.3328 20.4286C17.3502 24.0671 20.3522 27.0489 23.9977 27.0476C27.6954 27.0455 30.6835 24.0386 30.6703 20.3332C30.6571 16.6641 27.6565 13.6704 24.0061 13.6836Z" fill="#074A37"/>
<path d="M7.06694 12.3391C6.08181 12.3391 5.09738 12.3446 4.11225 12.337C3.57655 12.3328 3.26418 11.9432 3.40888 11.475C3.50767 11.155 3.75187 11.0151 4.07051 11.0144C6.05189 11.011 8.03328 11.0089 10.0147 11.0179C10.4314 11.02 10.7104 11.3157 10.702 11.6907C10.6937 12.0671 10.4161 12.3314 9.98684 12.3349C9.01354 12.3433 8.04024 12.3377 7.06694 12.3377C7.06694 12.3377 7.06694 12.3384 7.06694 12.3391Z" fill="#074A37"/>
<path d="M7.05507 5.65747C8.01654 5.65747 8.97871 5.6526 9.94018 5.65956C10.3987 5.66304 10.7062 5.94828 10.7013 6.33997C10.6964 6.71843 10.4063 6.97654 9.95549 7.00089C9.87479 7.00507 9.79339 7.00228 9.71199 7.00228C8.47223 7.00228 7.23247 7.00228 5.99202 7.00228C5.37771 7.00228 4.76339 7.00854 4.14977 7.00089C3.71913 6.99533 3.45893 6.8054 3.39423 6.47563C3.30309 6.01229 3.6099 5.66373 4.13516 5.65956C5.10846 5.65191 6.08177 5.65747 7.05507 5.65747Z" fill="#074A37"/>
<path d="M21.0082 7.00357C20.0697 7.00357 19.1318 7.00566 18.1933 7.00288C17.7467 7.00148 17.4642 6.81364 17.3919 6.48457C17.2938 6.03723 17.6166 5.66363 18.1265 5.65876C18.9607 5.65041 19.7949 5.65667 20.629 5.65667C21.7415 5.65667 22.8539 5.6518 23.9656 5.66015C24.3998 5.66363 24.6961 5.95026 24.6968 6.33221C24.6975 6.70442 24.4262 6.96461 23.9976 6.99801C23.9051 7.00496 23.8126 7.00218 23.7201 7.00218C22.8156 7.00288 21.9119 7.00288 21.0082 7.00357Z" fill="#074A37"/>
<path d="M7.04111 13.6844C7.99145 13.6844 8.9418 13.683 9.89144 13.6851C10.3937 13.6858 10.6971 13.9342 10.7019 14.3412C10.7075 14.7454 10.3993 15.0118 9.90118 15.0125C7.98937 15.016 6.07755 15.0153 4.16504 15.0125C3.65856 15.0118 3.37262 14.7565 3.37958 14.3335C3.38654 13.9251 3.66691 13.6872 4.1553 13.6858C5.11747 13.683 6.07894 13.6844 7.04111 13.6844Z" fill="#074A37"/>
<path d="M7.02662 8.34425C7.98879 8.34425 8.95026 8.34355 9.91243 8.34494C10.389 8.34564 10.6916 8.59471 10.7014 8.98709C10.7111 9.39338 10.3987 9.67097 9.91661 9.67167C7.99296 9.67445 6.06932 9.67445 4.14568 9.67306C3.67329 9.67236 3.38387 9.41565 3.38179 9.00935C3.3797 8.59958 3.66425 8.34703 4.1415 8.34564C5.10298 8.34216 6.06445 8.34425 7.02662 8.34425Z" fill="#074A37"/>
<path d="M21.0445 9.6722C20.0831 9.6722 19.1209 9.67359 18.1594 9.6715C17.6655 9.67011 17.3726 9.40922 17.3809 8.98762C17.3886 8.58411 17.6766 8.34408 18.1615 8.34408C20.0733 8.34339 21.9851 8.34339 23.8969 8.34478C24.3986 8.34478 24.6998 8.59593 24.6984 9.0071C24.697 9.41618 24.3923 9.67081 23.8949 9.6722C22.9445 9.67429 21.9949 9.67289 21.0445 9.6722Z" fill="#074A37"/>
<path d="M24.6726 20.5889C24.6726 21.2839 24.6928 21.9796 24.6642 22.6732C24.651 22.9968 24.7623 23.0823 25.0545 23.042C25.1679 23.0267 25.2869 23.0336 25.401 23.0482C25.7614 23.0935 26.0236 23.3954 26.0063 23.7349C25.9889 24.0709 25.7287 24.3499 25.3746 24.3548C24.4597 24.368 23.5441 24.368 22.63 24.3548C22.2731 24.3499 22.017 24.0737 21.9983 23.7349C21.9802 23.3947 22.2411 23.0962 22.6028 23.0461C22.6369 23.0413 22.6724 23.0413 22.7065 23.0399C23.3326 23.0079 23.3326 23.0079 23.3326 22.3602C23.3319 21.3528 23.3236 20.3454 23.3368 19.338C23.3403 19.0945 23.2756 19.0082 23.0293 19.0305C22.8589 19.0458 22.6801 19.034 22.5131 18.9971C22.2 18.9282 21.976 18.6409 21.9997 18.3417C22.0247 18.0217 22.1917 17.7768 22.5159 17.7274C23.0544 17.6453 23.6019 17.646 24.1397 17.7246C24.4986 17.7768 24.6663 18.0419 24.6705 18.4698C24.6774 19.1766 24.6726 19.8827 24.6726 20.5889Z" fill="#074A37"/>
<path d="M24.6629 16.3642C24.6581 16.7239 24.3492 17.0258 23.9923 17.0203C23.6354 17.0147 23.3355 16.7044 23.3418 16.3461C23.3473 15.9809 23.6458 15.6907 24.0103 15.6956C24.3735 15.7005 24.6685 16.0024 24.6629 16.3642Z" fill="#074A37"/>
</svg>
