<?xml version="1.0" encoding="utf-8"?>
<!-- Generator: Adobe Illustrator 24.1.1, SVG Export Plug-In . SVG Version: 6.00 Build 0)  -->
<svg version="1.1" id="Layer_1" xmlns="http://www.w3.org/2000/svg" xmlns:xlink="http://www.w3.org/1999/xlink" x="0px" y="0px"
	 viewBox="0 0 25.2 60.6" style="enable-background:new 0 0 25.2 60.6;" xml:space="preserve">
<g>
	<path d="M7.1,12.3C6,8.7,7.1,5.9,9.8,3.6c0.7-0.6,1.3-1.3,2-1.9c0.7-0.7,1.5-0.7,2.2,0c1.2,1.2,2.5,2.4,3.7,3.8
		c2.2,2.5,2.3,6.3,0.3,9.1c-0.2,0.3-0.6,0.5-0.6,0.8c1.7,0,3.4,0,5.1,0c1.5,0,1.9,0.4,1.9,1.9c0,1.4,0,2.8,0,4.2
		c0,1.6-0.4,3.1-1.4,4.4c1.2,0.2,1.5,1,1.4,2c-0.1,1.8,0.1,3.5-0.1,5.3c-0.1,0.5-0.2,1.1-0.4,1.6c-0.3,0.9-1.3,1.8,0.3,2.5
		c0.2,0.1,0.2,0.5,0.2,0.8c0,1.8,0.1,3.6-0.1,5.4c-0.3,3.9-3.3,6.6-7.2,6.7c-0.9,0-2.2-0.4-2.8,0.2c-0.6,0.6-0.2,1.9-0.2,2.9
		c0,1.8,0,3.7,0,5.5c0,0.9-0.3,1.6-1.3,1.6c-1.1,0-1.4-0.7-1.4-1.6c0-3.4,0-6.8,0-10.2c0-0.9-0.3-1.1-1.1-1.1c-1.1,0-2.2,0-3.2-0.1
		c-3.3-0.4-5.9-3.4-6-6.7c0-1.7,0-3.3,0-5c0-0.7,0.2-1.2,0.8-1.4c0.3-0.1,0.6-0.2,0.3-0.7C1,31.8,1,29.9,1,28.1c0-1.1,0-2.2,0-3.3
		c0-0.7,0.2-1.3,1-1.4c0.6-0.1,0.5-0.3,0.3-0.7c-1-1.5-1.3-3.1-1.3-4.9c0.1-1.3,0-2.6,0-3.8c0-1.2,0.4-1.6,1.7-1.6
		C4.1,12.3,5.5,12.3,7.1,12.3z M16.6,10.5c0-1.9-0.7-2.9-1.6-3.9c-2.2-2.2-2.1-2.2-4.2,0C9,8.4,9,10.9,10.6,12.8
		c0.4,0.4,0.8,0.8,1.2,1.2c1.4,1.4,1.3,1.3,2.7,0C15.7,12.9,16.6,11.7,16.6,10.5z M16.3,26c3,0,4.8-1.2,5.2-3.6
		c0.2-1.2,0.1-2.5,0.1-3.8c0-0.4-0.1-0.5-0.5-0.5c-1.1,0-2.2-0.1-3.3,0.1c-2.5,0.5-3.7,2.3-3.7,5.6C14.1,26,14.1,26,16.3,26z
		 M14.2,44.9c0,2.4,0,2.4,2.3,2.4c0.3,0,0.6,0,0.8,0c2.2-0.1,4-1.8,4.2-4c0.1-1.1,0-2.2,0-3.3c0-0.3,0-0.6-0.4-0.6
		c-1.2,0.1-2.5-0.2-3.7,0.1C15.2,40.1,14.2,41.7,14.2,44.9z M3.7,17.2c0,3.9,1.6,5.8,4.9,5.8c2.6,0,2.6,0,2.6-2.6
		c0-3.7-1.7-5.3-5.3-5.4C3.7,15.1,3.7,15.1,3.7,17.2z M11.2,42.4c0-3.9-1.5-5.6-4.8-5.7c-2.7-0.1-2.7-0.1-2.7,2.6
		c0,3.5,1.7,5.3,5.3,5.3C11.2,44.6,11.2,44.6,11.2,42.4z M21.6,31.2c0-2.5,0-2.5-2.3-2.5c-0.4,0-0.8,0-1.2,0.1
		c-2,0.2-3.7,1.6-3.9,3.6c-0.2,1.2-0.1,2.5-0.1,3.7c0,0.3,0,0.6,0.4,0.6c2.1,0,4.3,0.3,5.9-1.5C21.5,34,21.7,32.5,21.6,31.2z
		 M3.7,28.2c0,0.5,0,1,0,1.4c0.1,1.9,1.1,3.3,2.9,4c1.4,0.5,3,0.6,4.3,0.2c0.7-0.2,0.2-1.7,0.2-2.6c0-3.5-1.7-5.2-5.3-5.2
		C3.7,26,3.7,26,3.7,28.2z"/>
</g>
</svg>
