<svg width="25" height="25" viewBox="0 0 25 25" fill="none" xmlns="http://www.w3.org/2000/svg">
<path d="M24.9995 12.3583C25.0596 19.2392 19.5827 24.8314 12.8096 24.9962C5.84582 25.1654 0.141936 19.6264 0.0027062 12.8024C-0.139709 5.83918 5.3567 0.12817 12.2736 0.00212849C19.1846 -0.124368 24.8776 5.40327 24.9995 12.3583ZM12.4893 23.0983C18.2651 23.1297 23.0785 18.3669 23.0981 12.5476C23.1176 6.6787 18.3925 1.9419 12.5443 1.89867C6.71305 1.8559 1.9178 6.62364 1.89551 12.4734C1.87321 18.3119 6.61386 23.0664 12.4893 23.0983Z" fill="#EBF2E4"/>
<path d="M11.4987 13.7676C11.4992 13.3508 11.4969 12.934 11.4997 12.5172C11.5033 12.0012 11.7918 11.6394 12.3 11.5339C12.7482 11.4406 13.1809 11.3223 13.5499 11.0315C14.3389 10.409 14.5422 9.01303 13.9516 8.23767C13.5053 7.65159 12.6667 7.39041 11.951 7.61519C11.1862 7.85499 10.6843 8.51432 10.6506 9.32335C10.632 9.77155 10.3904 10.1215 10.0109 10.2502C9.38982 10.4609 8.76783 10.0114 8.75008 9.33973C8.70367 7.56923 10.1865 5.86244 11.9496 5.65677C13.7797 5.44291 15.343 6.34249 15.9719 7.97102C16.7599 10.0127 15.6443 12.458 13.5899 13.1756C13.4311 13.2311 13.3852 13.3048 13.3884 13.4659C13.3988 13.981 13.3947 14.4965 13.3915 15.0121C13.3879 15.5904 12.9839 16.0068 12.4338 16.004C11.89 16.0013 11.5037 15.5963 11.4992 15.0189C11.496 14.6012 11.4983 14.1844 11.4987 13.7676Z" fill="#EBF2E4"/>
<path d="M12.4903 17.1625C13.1581 17.1625 13.7236 17.7212 13.7281 18.3865C13.7327 19.0467 13.1627 19.6201 12.4999 19.6223C11.8344 19.6246 11.2707 19.0622 11.2671 18.3933C11.2635 17.7185 11.8162 17.1625 12.4903 17.1625Z" fill="#EBF2E4"/>
</svg>
