<?xml version="1.0" encoding="utf-8"?>
<!-- Generator: Adobe Illustrator 24.1.1, SVG Export Plug-In . SVG Version: 6.00 Build 0)  -->
<svg version="1.1" id="Layer_1" xmlns="http://www.w3.org/2000/svg" xmlns:xlink="http://www.w3.org/1999/xlink" x="0px" y="0px"
	 viewBox="0 0 512 448" style="enable-background:new 0 0 512 448;" xml:space="preserve">
<style type="text/css">
	.st0{fill:#074A37;}
</style>
<g>
	<g>
		<path class="st0" d="M5,34C5.3,17.6,21,4.4,37,4.9c144.3-0.3,288.7,0,433.1-0.1c8.4-0.2,17.2,1.1,24.2,6.1
			c8.7,6,13,16.8,12.9,27.1c0.3,104.3,0,208.7,0.1,313c-0.4,10.7,1.3,22.3-4.4,32c-5.3,10-16.8,15.4-27.8,15.5
			c-77.5,0-154.9,0.1-232.4,0.2c0.2-118.2,0.1-236.5,0.3-354.7c0-3.4-0.5-7.3-3.3-9.6c-2.9-2.6-7-2.5-10.6-2.4
			c-61.7,0.2-123.3,0.2-185,0c-3.3-0.1-6.9,0.2-9.4,2.5c-2.5,2.5-2.9,6.2-2.8,9.5c0.3,57.2,0.1,114.3,0.3,171.5
			c-9.1-0.5-18.2-0.3-27.2-0.1C5.1,154.9,4.6,94.4,5,34z M275.4,32.6c-4.6,1.1-6.4,6.1-6.2,10.3c0.2,23,0.2,46.1,0.1,69.1
			c-0.1,83,0.1,166-0.1,248.9c0,2.8,0.6,5.9,2.8,8c2.7,2.4,6.5,2.6,10,2.5c63-0.2,126-0.1,189,0c5.8,0.5,10.2-4.8,9.6-10.3
			c-0.2-89.7-0.1-179.4-0.1-269c-0.1-17.1,0.4-34.2,0-51.3c0.1-4.6-3.8-8.6-8.4-8.6c-7-0.2-14,0-21.1-0.1c-56.3,0.2-112.7,0.1-169,0
			C279.8,32,277.5,31.9,275.4,32.6z"/>
	</g>
	<path class="st0" d="M315.5,96.4c39.6,0,79.3,0,118.9,0c-0.2,9.2-0.3,18.3,0.1,27.5c-27.2-0.6-54.3,0.2-81.5-0.3
		c-12.5,0-25,0-37.5,0.3C315.7,114.7,315.7,105.5,315.5,96.4z"/>
	<path class="st0" d="M315.5,188c39.6,0,79.3,0,118.9,0c-0.2,9.1-0.3,18.3,0.1,27.4c-27.5-0.3-55,0.2-82.5-0.1
		c-12.2-0.1-24.3,0.2-36.5,0.1C315.7,206.3,315.7,197.1,315.5,188z"/>
	<path class="st0" d="M41.3,307c0.2-9.1,0.2-18.3,0-27.4c16.6,0,33.1,0,49.7,0.1c22.9,0.1,45.8-0.3,68.8-0.1
		c-0.3,39.7-0.2,79.4,0,119c-9.1-0.3-18.2-0.2-27.2,0c0.2-19.2-2.6-37.6-2.7-56.8c-0.5-4-0.3-8-2.2-11.4
		c-33.5,34.7-67.8,68.6-101.8,102.8c-6.2-6.7-12.5-13.2-19.2-19.3c18-18.2,36.4-36,54.4-54.1c15.7-16.5,32.4-31.9,47.9-48.7
		c-3.1-1.6-6.6-1.6-10.3-1.8C79.3,309.5,60.6,306.8,41.3,307z"/>
	<path class="st0" d="M315.5,279.6c39.7,0.1,79.3,0.1,119,0c-0.4,9.2-0.3,18.3,0,27.5c-20.5-0.4-41-0.3-61.5-0.1
		c-19.2-0.3-38.3-0.1-57.5,0C315.7,297.9,315.7,288.8,315.5,279.6z"/>
</g>
</svg>
