<svg width="18" height="14" viewBox="0 0 18 14" fill="none" xmlns="http://www.w3.org/2000/svg">
<path d="M1.02609 4.39499C0.991682 4.16739 1.10824 4.05634 1.31137 3.97772C2.81714 3.39276 4.32123 2.80231 5.82367 2.20966C6.81826 1.81767 7.80897 1.41524 8.80522 1.0282C8.92622 0.981474 9.06497 0.997417 9.20484 1.05294C11.6952 2.03428 14.1895 3.00738 16.682 3.98322C16.8646 4.05469 17.0006 4.17784 17.0001 4.384C16.9995 4.58631 16.8746 4.71111 16.6904 4.79248C14.7328 5.65782 12.7758 6.52535 10.8194 7.39344C10.3404 7.60565 9.86031 7.81511 9.38577 8.03667C9.14656 8.14827 8.93121 8.16367 8.67757 8.04986C6.67396 7.15154 4.66535 6.26421 2.65618 5.37798C2.22216 5.18666 1.77814 5.01678 1.34245 4.82931C1.1543 4.7485 0.976142 4.64789 1.02609 4.39499ZM2.44361 4.40269C2.59291 4.47746 2.68005 4.52639 2.77162 4.56652C4.75304 5.44506 6.73667 6.31919 8.71476 7.20542C8.94231 7.30767 9.11825 7.27084 9.33027 7.17628C10.9154 6.46928 12.5061 5.77382 14.0945 5.07396C14.5769 4.8612 15.0581 4.64569 15.5781 4.41369C15.4815 4.36586 15.4366 4.33947 15.3883 4.32023C13.3114 3.50437 11.2334 2.69071 9.15877 1.8688C9.02668 1.81657 8.9301 1.84681 8.8191 1.89079C7.47762 2.41912 6.13614 2.9469 4.79466 3.47523C4.02874 3.77705 3.26337 4.07943 2.44361 4.40269Z" fill="#EBF2E4" stroke="#EBF2E4" stroke-width="0.2"/>
<path d="M1.02129 9.8494C0.974114 9.53823 1.29158 9.3832 1.58352 9.51239C2.68024 9.99784 3.78028 10.4767 4.87811 10.961C6.19683 11.5432 7.51556 12.1265 8.8315 12.7154C8.9525 12.7692 9.04796 12.7714 9.16729 12.7137C9.91212 12.3536 10.6719 12.0204 11.4257 11.6829C12.0606 11.3987 12.7072 11.1216 13.3577 10.8615C13.8994 10.6449 14.4461 10.43 14.9572 10.1545C15.4123 9.90933 15.9074 9.77188 16.367 9.54373C16.685 9.3854 16.8471 9.45522 16.9647 9.73285C17.0513 9.93626 16.9237 10.1952 16.675 10.2881C15.6443 10.673 14.6675 11.1793 13.6535 11.6032C12.7921 11.9627 11.9285 12.3228 11.0915 12.734C10.5215 13.0144 9.90602 13.1953 9.36376 13.5307C8.99801 13.7572 8.68775 13.5532 8.3664 13.4108C7.60547 13.0738 6.84065 12.7461 6.08194 12.4053C5.08624 11.9578 4.10331 11.4817 3.09872 11.0567C2.50929 10.8071 1.93485 10.5251 1.33876 10.2914C1.13673 10.2128 1.00298 10.0842 1.02129 9.8494Z" fill="#EBF2E4" stroke="#EBF2E4" stroke-width="0.2"/>
<path d="M4.68809 9.11855C4.30402 8.92283 3.8761 8.81562 3.50202 8.61606C2.89094 8.28949 2.21548 8.11302 1.61606 7.76666C1.5256 7.71443 1.41792 7.69244 1.31969 7.65396C1.08547 7.56215 0.922848 7.22789 1.03829 7.02337C1.15984 6.80841 1.35465 6.78642 1.57888 6.88538C2.78604 7.41756 3.99654 7.94424 5.2037 8.47586C6.40642 9.00529 7.60859 9.53582 8.80743 10.0735C8.9473 10.1362 9.05774 10.1312 9.19539 10.0707C11.5231 9.04048 13.8531 8.01571 16.1825 6.98929C16.2669 6.95245 16.3501 6.91342 16.4362 6.88098C16.7026 6.78037 16.8347 6.82985 16.9495 7.069C17.0544 7.28726 16.9973 7.47034 16.7597 7.58029C16.1659 7.85572 15.5664 8.11961 14.9687 8.3879C13.9619 8.83981 12.9556 9.29447 11.9466 9.74143C11.0131 10.1554 10.0751 10.5595 9.14044 10.9713C8.93842 11.0603 8.75248 10.9663 8.60429 10.8806C8.334 10.7244 8.05316 10.6101 7.764 10.499C7.41378 10.3643 7.0841 10.1774 6.74054 10.0246C6.06675 9.72494 5.38963 9.43356 4.71362 9.13889L4.70751 9.11855H4.68809Z" fill="#EBF2E4" stroke="#EBF2E4" stroke-width="0.2"/>
</svg>
