<?xml version="1.0" encoding="utf-8"?>
<!-- Generator: Adobe Illustrator 24.1.1, SVG Export Plug-In . SVG Version: 6.00 Build 0)  -->
<svg version="1.1" id="Layer_1" xmlns="http://www.w3.org/2000/svg" xmlns:xlink="http://www.w3.org/1999/xlink" x="0px" y="0px"
	 viewBox="0 0 512 464" style="enable-background:new 0 0 512 464;" xml:space="preserve">
<style type="text/css">
	.st0{fill:#074A37;}
</style>
<g>
	<g>
		<path class="st0" d="M179.1,13.3c23.9-2.6,48.7,2.9,69.3,15.5c21.1,12.7,37.4,32.9,45.5,56.2c8.4,23.9,8.2,50.7-0.7,74.4
			c-8.2,22.2-23.9,41.5-43.9,54.1c-21.9,13.9-48.9,19.4-74.5,15.4c-20.5-3.1-40-12.4-55.4-26.2c-20.7-18.3-33.8-44.9-36-72.5
			c-2-22.4,3.3-45.3,15-64.5C115.4,36.9,146,16.7,179.1,13.3z M176.5,39.7c-19.1,3.4-36.8,13.8-49,28.8
			c-12.2,14.6-18.9,33.5-18.7,52.5c0,18.3,6.2,36.5,17.2,51c11.9,15.8,29.6,27.1,49.1,30.9c21.4,4.4,44.4-0.2,62.4-12.4
			c16.4-11,28.7-28,33.8-47c4.7-16.9,3.9-35.2-2.3-51.7c-6.7-18.1-20.1-33.6-37-43C215.5,39.4,195.4,36.3,176.5,39.7z"/>
	</g>
	<path class="st0" d="M293.8,16.4c22.5-6.6,47.3-4.2,68.7,5.1c21,9,38.9,25,50.4,44.7c13,22,17.8,48.6,13.4,73.8
		c-3.7,22.1-14.6,43-30.7,58.6c-25.9,26.2-66.3,38.1-102,27.8c6.9-7,13.7-14.2,19.2-22.3c19.4,1.9,39.2-3.8,54.9-15.2
		c27.3-19.1,40.6-55.7,32.1-87.9c-5.3-21.2-19.4-40.1-38.4-51.1c-14.5-8.6-31.8-12.2-48.6-11.1C307.4,30.4,300.6,23.4,293.8,16.4z"
		/>
	<g>
		<path class="st0" d="M170.5,269.8c43.9-2.8,88.3,3.1,130.1,16.6c15.9,5.4,31.5,11.8,46.4,19.6c7.5,3.9,15.3,7.7,21.1,13.9
			c7.6,7.6,11.4,18.4,11.8,29c0.3,28,0.1,56,0.1,84.1c-0.1,5.2,0.7,10.9-2.3,15.6c-2.6,4.1-8,5.3-12.5,5.1c-114,0.3-228,0-342.1,0.1
			c-5-0.1-10.6,0.2-15-2.7c-3.8-2.8-4.6-7.8-4.7-12.2c0-29,0-58,0-87c-0.1-11.4,3.5-23,11.4-31.4c6.2-6.8,14.7-11,22.8-15
			C78.6,284.2,124.4,272.8,170.5,269.8z M179.1,295.2c-46.7,1.8-93.3,13.3-134.5,35.5c-4.9,2.4-9.9,5.3-12.8,10.1
			c-3.6,5.7-2.9,12.8-2.8,19.2c0.1,20.4,0,40.8-0.1,61.1c-0.3,4.4,3.9,7.7,8.1,7.2c102-0.2,204-0.1,306-0.1c3-0.2,6.5,0.9,9.2-0.9
			c1.9-1.5,2.2-4,2.1-6.2c-0.1-23.7,0.1-47.3-0.1-71c0.1-4.1-1.2-8.2-3.8-11.3c-2.4-3.4-6.4-5-10-7
			C291.3,305.1,234.8,292.7,179.1,295.2z"/>
	</g>
	<path class="st0" d="M364.8,272.2c34.9,4.2,69,14.3,100.8,29.3c10.6,5.2,21.9,9.9,30.1,18.8c8.6,8.9,12.2,21.5,12.1,33.7
		c-0.5,26.7-0.2,53.3-0.1,80c0,5.5,0.6,11.9-3.6,16.1c-4.2,4.3-10.6,3.7-16.1,3.8c-23.2-0.3-46.4,0-69.7,0c0.3-8.6,0.3-17.2,0-25.8
		c18.9-0.1,37.7,0,56.6,0.1c4,0.4,7.5-3.2,7-7.2c-0.1-22-0.3-44,0-66c0-4.4,0-9-2.2-13c-2.1-4.3-6-7.5-10.2-9.6
		c-17.7-9.6-36.3-17.6-55.6-23.5c-4-1.3-9-1.7-11.1-5.9C393.9,288.8,379.6,279.3,364.8,272.2z"/>
</g>
</svg>
