<?xml version="1.0" encoding="utf-8"?>
<!-- Generator: Adobe Illustrator 24.1.1, SVG Export Plug-In . SVG Version: 6.00 Build 0)  -->
<svg version="1.1" id="Layer_1" xmlns="http://www.w3.org/2000/svg" xmlns:xlink="http://www.w3.org/1999/xlink" x="0px" y="0px"
	 viewBox="0 0 38 55.5" style="enable-background:new 0 0 38 55.5;" xml:space="preserve">
<g>
	<path d="M0.6,31c0.1-5.5,2.8-9.4,7.6-10.5c3.7-0.9,7.2-0.1,10.2,2.4c0.6,0.5,0.9,0.5,1.4,0c4.2-3.6,10.5-3.7,14.4-0.3
		c3.1,2.8,3.8,6.5,3.2,10.4c-0.9,6-4.1,10.7-8.5,14.7c-2.7,2.4-5.7,4.5-8.7,6.5c-0.7,0.5-1.4,0.6-2.1,0.1c-3.8-2.6-7.6-5.2-10.8-8.5
		C4,42.3,1.6,38.2,0.8,33.4C0.6,32.6,0.6,31.8,0.6,31z M11.2,23c-4.7,0-7.8,3.1-7.9,7.6c0,4,1.5,7.5,3.8,10.7c3,4.2,7.1,7.1,11.3,10
		c0.5,0.4,0.9,0.2,1.3-0.1c2.8-1.9,5.6-3.9,8.1-6.3c3.3-3.2,5.7-6.9,6.7-11.5c0.6-2.9,0.3-5.7-1.7-8.1c-3.1-3.5-9.3-3-12.4,1
		c-1,1.3-1.8,1.3-2.7,0C16,24,13.6,23,11.2,23z"/>
	<path d="M9.8,9.7c0-5.1,4.2-9.3,9.3-9.2c5.1,0,9.2,4.2,9.2,9.3c0,5.1-4.2,9.3-9.3,9.2C13.9,19,9.8,14.9,9.8,9.7z M12.6,9.7
		c0,3.6,2.9,6.6,6.5,6.6c3.5,0,6.5-2.9,6.5-6.4c0-3.6-2.9-6.6-6.5-6.6C15.5,3.2,12.6,6.1,12.6,9.7z"/>
</g>
</svg>
