<svg width="12" height="12" viewBox="0 0 12 12" fill="none" xmlns="http://www.w3.org/2000/svg">
<path d="M12 5.99513C11.9951 2.67413 9.28945 -0.0484019 5.89698 0.000652681C2.66394 0.0497073 -0.00245094 2.68885 1.90735e-06 6.00494C1.90735e-06 9.32839 2.713 12.046 6.09076 11.9994C9.33851 11.9528 11.9975 9.30876 12 5.99513ZM7.58463 11.2611C7.57727 11.2808 7.55765 11.2857 7.54783 11.2734C7.53557 11.2562 7.56255 11.2538 7.56991 11.244C7.62388 11.1876 7.67784 11.1336 7.73181 11.0772C8.21995 10.5523 8.55356 9.93421 8.80376 9.26952C8.84792 9.15424 8.88716 9.14934 8.98038 9.20084C9.10793 9.27443 9.24285 9.33329 9.36549 9.41178C9.53475 9.5197 9.68684 9.64724 9.78496 9.83119C9.82666 9.90968 9.82666 9.96364 9.75307 10.0299C9.35323 10.3953 8.91415 10.7044 8.426 10.9398C8.15372 11.0698 7.88144 11.1998 7.58463 11.2611ZM7.58218 0.738925C7.61406 0.74383 7.64595 0.746283 7.67784 0.756094C8.42846 0.998914 9.10057 1.38399 9.68684 1.91378C9.87326 2.08057 9.87572 2.11245 9.75552 2.33565C9.75061 2.34301 9.74816 2.35037 9.74325 2.35773C9.56664 2.67413 9.28209 2.86789 8.97792 3.04204C8.90433 3.08373 8.90679 3.01996 8.89452 2.98317C8.60998 2.14679 8.20278 1.38399 7.56991 0.753641C7.56255 0.74383 7.55519 0.734019 7.54783 0.724208C7.565 0.719303 7.57727 0.71685 7.58218 0.738925ZM4.41783 0.738925C4.42028 0.71685 4.435 0.721755 4.44972 0.726661C4.44236 0.736472 4.435 0.746283 4.42764 0.753641C4.21178 0.976839 4.00818 1.20985 3.83647 1.46984C3.52249 1.94076 3.28455 2.44848 3.10548 2.98317C3.08095 3.06166 3.05642 3.08373 2.98038 3.03223C2.87735 2.95865 2.76451 2.89978 2.66394 2.82375C2.44072 2.65451 2.24939 2.45584 2.15863 2.18113C2.1341 2.10755 2.14882 2.0634 2.20523 2.01189C2.64432 1.59738 3.13737 1.25645 3.68684 1.00627C3.92232 0.898352 4.15781 0.785526 4.41783 0.738925ZM10.2339 2.49508C10.2535 2.51225 10.2633 2.51961 10.2706 2.52696C11.0409 3.48353 11.4481 4.57499 11.5045 5.79891C11.5094 5.88966 11.4873 5.91419 11.3941 5.91419C10.7563 5.90928 10.1186 5.90928 9.48324 5.91419C9.39002 5.91419 9.3704 5.88966 9.3704 5.80136C9.36059 5.0778 9.26738 4.36161 9.09567 3.65767C9.07359 3.57183 9.09321 3.53749 9.16926 3.49825C9.60834 3.26524 9.99591 2.966 10.2339 2.49508ZM1.75879 2.51961C1.83238 2.65451 1.91578 2.7845 2.02126 2.90223C2.24939 3.15486 2.51922 3.34863 2.81848 3.50315C2.89698 3.54485 2.92887 3.57919 2.90434 3.67975C2.73017 4.38368 2.64187 5.09988 2.63205 5.82343C2.63205 5.91173 2.59526 5.91909 2.52412 5.91909C1.89125 5.91664 1.25838 5.91419 0.625512 5.92154C0.515128 5.92154 0.490599 5.89456 0.495504 5.78664C0.554377 4.59707 0.944401 3.53258 1.67784 2.59319C1.69747 2.5613 1.71464 2.52696 1.75879 2.51961ZM10.1971 9.55894C10.0499 9.33084 9.8659 9.1616 9.65495 9.01934C9.47833 8.89916 9.29191 8.80105 9.09567 8.71766C9.02208 8.68577 9.00981 8.65143 9.02944 8.57785C9.21341 7.9058 9.32625 7.22394 9.35323 6.52982C9.35568 6.43907 9.38267 6.40718 9.48079 6.40718C10.1087 6.41209 10.7392 6.41209 11.3671 6.40718C11.4677 6.40718 11.4898 6.43416 11.48 6.53227C11.4186 7.10376 11.2813 7.65562 11.0531 8.18296C10.8397 8.67841 10.5576 9.13462 10.1971 9.55894ZM1.56501 6.40964C1.86672 6.40964 2.17089 6.40964 2.47261 6.40964C2.63696 6.40964 2.63941 6.40964 2.64677 6.57152C2.67375 7.2313 2.78169 7.87882 2.95094 8.51408C2.98038 8.62936 2.96321 8.67351 2.85282 8.72256C2.4628 8.88689 2.09976 9.10028 1.83974 9.44612C1.77841 9.52706 1.75634 9.50989 1.70483 9.44366C1.48406 9.16896 1.29272 8.87708 1.12837 8.56559C0.792315 7.92542 0.591171 7.24602 0.517581 6.52737C0.50777 6.4219 0.542111 6.40473 0.635325 6.40718C0.944401 6.41209 1.25593 6.40964 1.56501 6.40964ZM7.56255 5.91419C7.15781 5.91419 6.75307 5.91173 6.35078 5.91664C6.26492 5.91664 6.24285 5.89211 6.24285 5.80626C6.24775 5.32062 6.2453 4.83498 6.2453 4.34934C6.2453 4.18256 6.2453 4.18256 6.41701 4.1752C7.13328 4.14331 7.83729 4.02804 8.51431 3.78522C8.59526 3.75578 8.61734 3.77786 8.63451 3.85144C8.78414 4.50141 8.86018 5.1612 8.87735 5.82834C8.8798 5.91419 8.84301 5.91664 8.77678 5.91664C8.37204 5.91419 7.96729 5.91419 7.56255 5.91419ZM4.43009 5.91419C4.02535 5.91419 3.62061 5.91173 3.21586 5.91664C3.14227 5.91664 3.11529 5.89947 3.12265 5.82098C3.14227 5.56345 3.14963 5.30836 3.16926 5.05082C3.2036 4.64367 3.27719 4.24142 3.36795 3.84408C3.38021 3.79257 3.39003 3.75824 3.46116 3.78276C4.16762 4.03294 4.89861 4.15067 5.64432 4.17765C5.72772 4.18011 5.7547 4.20709 5.75225 4.29293C5.74734 4.79574 5.74734 5.29855 5.75225 5.79891C5.7547 5.90192 5.71791 5.91664 5.62715 5.91664C5.22976 5.91173 4.82993 5.91419 4.43009 5.91419ZM7.55519 6.40964C7.95258 6.40964 8.34751 6.41454 8.74489 6.40718C8.84546 6.40473 8.86509 6.43662 8.86018 6.52982C8.83074 7.17244 8.72527 7.80279 8.56092 8.42333C8.54375 8.48465 8.52657 8.50917 8.45298 8.4871C7.7637 8.28107 7.05478 8.19768 6.33851 8.1707C6.25021 8.16824 6.24039 8.129 6.24039 8.05787C6.24285 7.5428 6.24285 7.02772 6.24039 6.51265C6.24039 6.42681 6.26738 6.40228 6.35078 6.40228C6.75552 6.40964 7.15536 6.40964 7.55519 6.40964ZM4.44236 6.40964C4.84219 6.40964 5.24203 6.41209 5.64186 6.40718C5.72527 6.40718 5.7547 6.42926 5.75225 6.5151C5.7498 7.03018 5.7498 7.5428 5.75225 8.05787C5.75225 8.14372 5.72772 8.16824 5.64186 8.1707C4.9305 8.19522 4.22649 8.27371 3.53966 8.47484C3.47343 8.49446 3.4489 8.47974 3.42927 8.40861C3.26492 7.78807 3.16435 7.15772 3.13246 6.5151C3.12756 6.41454 3.16435 6.40473 3.24775 6.40473C3.65004 6.40964 4.04497 6.40964 4.44236 6.40964ZM6.24285 2.12962C6.24285 1.63908 6.2453 1.14853 6.24039 0.657984C6.24039 0.564781 6.26492 0.547612 6.35323 0.577044C6.68929 0.68987 6.97629 0.87873 7.22895 1.124C7.82502 1.70039 8.17825 2.4215 8.44317 3.19411C8.47506 3.28731 8.4211 3.29712 8.36222 3.31674C7.70482 3.5424 7.0278 3.66013 6.33606 3.68711C6.24039 3.68956 6.24285 3.64541 6.24285 3.57673C6.2453 3.09355 6.24285 2.61036 6.24285 2.12962ZM5.75225 2.11736C5.75225 2.603 5.7498 3.09109 5.7547 3.57673C5.7547 3.66013 5.73753 3.68711 5.64677 3.68465C5.41864 3.6773 5.19052 3.65767 4.96239 3.62824C4.50368 3.56938 4.05478 3.47127 3.61815 3.31674C3.55438 3.29467 3.52494 3.27259 3.55192 3.19656C3.75307 2.60055 4.01308 2.03642 4.3982 1.53606C4.71709 1.12155 5.0924 0.778168 5.59526 0.596666C5.7498 0.540253 5.75225 0.540253 5.75225 0.699681C5.75225 1.17061 5.75225 1.64398 5.75225 2.11736ZM6.2453 10.0519C6.24285 10.0519 6.24285 10.0519 6.2453 10.0519C6.2453 9.62762 6.24775 9.20084 6.24285 8.77652C6.24285 8.68332 6.26983 8.65388 6.36059 8.6637C6.4955 8.67841 6.63042 8.68086 6.76288 8.69068C7.27555 8.73482 7.78332 8.81086 8.28128 8.95067C8.34015 8.96783 8.38675 8.97274 8.35487 9.06104C8.1341 9.64233 7.852 10.1844 7.44236 10.6553C7.148 10.9938 6.80458 11.2611 6.37531 11.4132C6.27964 11.4475 6.24039 11.4402 6.24285 11.3225C6.24775 10.9006 6.2453 10.4763 6.2453 10.0519ZM5.75225 10.0568C5.75225 10.4812 5.74734 10.9055 5.7547 11.3323C5.75716 11.4475 5.71791 11.45 5.62715 11.4181C5.30581 11.3028 5.02617 11.1238 4.78087 10.8908C4.24366 10.3782 3.9027 9.7429 3.64023 9.05613C3.60344 8.96293 3.6574 8.95312 3.71873 8.93595C4.34914 8.76916 4.99182 8.68822 5.64186 8.66124C5.72772 8.65634 5.75225 8.68332 5.75225 8.76916C5.7498 9.19839 5.75225 9.62762 5.75225 10.0568ZM4.47425 11.2857C4.435 11.2783 4.41783 11.2759 4.40311 11.2709C3.61815 11.0306 2.92151 10.6357 2.31071 10.0887C2.09976 9.89987 2.09976 9.87044 2.29845 9.65705C2.5045 9.43385 2.77187 9.29895 3.0417 9.17386C3.12265 9.13707 3.14963 9.14934 3.17907 9.23028C3.34832 9.69139 3.56419 10.1304 3.83892 10.5376C4.01799 10.8025 4.22404 11.0477 4.47425 11.2857Z" fill="#074A37"/>
</svg>
