<svg width="15" height="15" viewBox="0 0 15 15" fill="none" xmlns="http://www.w3.org/2000/svg">
<path d="M14.9962 7.41285C15.0322 11.5402 11.7469 14.8946 7.68395 14.9934C3.50666 15.0949 0.0851417 11.7724 0.00162334 7.67923C-0.0838055 3.5025 3.21326 0.0768799 7.36243 0.00127672C11.508 -0.0745994 14.923 3.24102 14.9962 7.41285ZM7.4918 13.8549C10.9564 13.8738 13.8438 11.017 13.8556 7.52639C13.8673 4.00606 11.0329 1.1648 7.52482 1.13887C4.02688 1.11322 1.15041 3.97304 1.13704 7.4819C1.12366 10.9839 3.96738 13.8358 7.4918 13.8549Z" fill="#074A37"/>
<path d="M6.89773 8.25813C6.89801 8.00812 6.89664 7.75811 6.89828 7.5081C6.90046 7.19859 7.0735 6.98161 7.37837 6.91829C7.64721 6.86233 7.90678 6.79137 8.12813 6.61696C8.6014 6.24359 8.7234 5.40622 8.36913 4.94114C8.10138 4.5896 7.59836 4.43293 7.16903 4.56776C6.71023 4.7116 6.40918 5.10708 6.38898 5.59236C6.37779 5.86121 6.23286 6.07109 6.00523 6.14833C5.63268 6.2747 5.25957 6.00504 5.24893 5.60219C5.22109 4.5402 6.11059 3.51641 7.16821 3.39305C8.26596 3.26477 9.20377 3.80436 9.58096 4.7812C10.0537 6.00586 9.38445 7.47262 8.15214 7.90304C8.05689 7.93634 8.02932 7.98055 8.03123 8.07717C8.03751 8.38613 8.03506 8.69537 8.03315 9.00461C8.03096 9.35151 7.78859 9.60124 7.45861 9.59961C7.13246 9.59797 6.90073 9.35506 6.89801 9.0087C6.89609 8.75815 6.89746 8.50814 6.89773 8.25813Z" fill="#074A37"/>
<path d="M7.49248 10.2945C7.89315 10.2945 8.23241 10.6297 8.23514 11.0287C8.23787 11.4247 7.89588 11.7686 7.49821 11.77C7.09891 11.7713 6.76074 11.434 6.75856 11.0328C6.75637 10.628 7.08799 10.2945 7.49248 10.2945Z" fill="#074A37"/>
</svg>
