<svg width="17" height="16" viewBox="0 0 17 16" fill="none" xmlns="http://www.w3.org/2000/svg">
<path d="M1.07324 8.44254C1.07775 4.32039 4.40376 1.0079 8.53324 1.00001C12.5889 0.992122 16 4.24883 16 8.47128C16 12.5901 12.6345 16.0186 8.31462 15.8868C4.11978 15.7583 1.07324 12.4278 1.07324 8.44254ZM8.52197 15.0557C12.1968 15.0591 15.1419 12.1787 15.1672 8.49551C15.192 4.83819 12.2244 1.87673 8.57437 1.85645C4.9441 1.8356 1.94207 4.78748 1.93193 8.44592C1.92235 11.9748 4.72605 15.0934 8.52197 15.0557Z" fill="white" stroke="white" stroke-width="0.2"/>
<path d="M8.10782 10.8524C8.10782 10.2985 8.09599 9.74466 8.11345 9.19192C8.12078 8.95415 8.07232 8.87245 7.81145 8.87639C6.71386 8.8933 5.61514 8.88372 4.51699 8.88372C4.43247 8.88372 4.34739 8.88766 4.264 8.88034C3.99073 8.85611 3.84086 8.70004 3.8448 8.45099C3.84875 8.21548 3.99524 8.06616 4.2533 8.03968C4.33725 8.03123 4.42177 8.03461 4.50629 8.03461C5.61402 8.03461 6.72118 8.02898 7.82891 8.03912C8.04302 8.04081 8.11571 7.99517 8.11345 7.76528C8.10049 6.64854 8.10782 5.53179 8.10782 4.41561C8.10782 4.33109 8.105 4.24601 8.11514 4.16262C8.14557 3.91076 8.30502 3.76596 8.54392 3.77385C8.78846 3.7823 8.92087 3.91809 8.94904 4.15586C8.95975 4.24883 8.95749 4.34293 8.95749 4.43702C8.95806 5.54419 8.96369 6.65135 8.95299 7.75852C8.95073 7.97657 9.0037 8.0425 9.22964 8.04024C10.3368 8.02785 11.4445 8.03461 12.5523 8.03461C12.6368 8.03461 12.7219 8.03066 12.8053 8.03855C13.0785 8.06334 13.2261 8.21886 13.2216 8.47015C13.2171 8.70962 13.0757 8.85386 12.8126 8.87921C12.7286 8.8871 12.6435 8.88372 12.5596 8.88372C11.4614 8.88372 10.3633 8.89104 9.26513 8.87809C9.02623 8.87527 8.94735 8.92147 8.95073 9.18065C8.96707 10.325 8.95749 11.4699 8.95806 12.6148C8.95806 12.8549 8.9158 13.0718 8.63689 13.1343C8.32475 13.2048 8.11458 13.0177 8.11064 12.6537C8.10331 12.0537 8.10782 11.453 8.10782 10.8524Z" fill="white" stroke="white" stroke-width="0.2"/>
</svg>
