<svg width="12" height="12" viewBox="0 0 12 12" fill="none" xmlns="http://www.w3.org/2000/svg">
<g clip-path="url(#clip0_535_4147)">
<path d="M-0.000157951 6.00604C-0.000157951 7.47023 -0.000626536 8.93394 -0.000157951 10.3981C0.000310634 11.3338 0.601506 11.9788 1.53399 11.9901C2.98614 12.0075 4.43922 11.9971 5.89183 11.9934C6.25967 11.9924 6.46866 11.7998 6.46819 11.4898C6.46772 11.1835 6.25077 10.9881 5.88855 10.9876C4.47483 10.9848 3.06158 10.9867 1.64786 10.9862C1.15209 10.9862 0.990431 10.8232 0.989963 10.3239C0.989494 7.44298 0.989494 4.56206 0.989963 1.68067C0.989963 1.16818 1.14834 1.01035 1.66285 1.01035C3.06064 1.00988 4.4589 1.01129 5.85669 1.00941C6.24374 1.00894 6.46351 0.827621 6.46819 0.514773C6.47194 0.266749 6.32809 0.0779142 6.08536 0.0262423C5.99492 0.00698376 5.8998 0.0018158 5.80655 0.0018158C4.40876 0.000407219 3.0105 -0.00194168 1.61271 0.0018158C0.75895 0.00463486 0.17275 0.472496 0.021397 1.26354C0.00124781 1.37017 0.0012478 1.4815 0.00077922 1.59048C-0.000626536 3.06218 -0.000157951 4.53388 -0.000157951 6.00604Z" fill="#074A37"/>
<path d="M10.1683 6.50311C9.52778 7.17249 8.88582 7.84375 8.24339 8.51548C8.18388 8.57748 8.11781 8.63479 8.0686 8.70431C7.9135 8.9218 7.94396 9.18674 8.13655 9.36195C8.3118 9.52119 8.58826 9.52965 8.78132 9.38027C8.81834 9.35162 8.85067 9.31733 8.88394 9.28444C9.83517 8.34496 10.7864 7.40595 11.7367 6.466C12.0881 6.11839 12.0881 5.87976 11.7372 5.53262C10.7869 4.59267 9.83611 3.65319 8.88441 2.71418C8.63325 2.46616 8.32961 2.44267 8.11968 2.65123C7.90038 2.86966 7.91819 3.15808 8.17685 3.41503C8.80288 4.03791 9.43172 4.65843 10.0615 5.27802C10.1163 5.33204 10.1843 5.37291 10.2461 5.42035C10.2367 5.44525 10.2274 5.46968 10.2185 5.49457C10.1393 5.49457 10.0601 5.49457 9.98043 5.49457C8.21574 5.49457 6.45152 5.4941 4.68682 5.49598C4.57061 5.49598 4.45113 5.50209 4.3396 5.53027C4.12733 5.58382 3.98535 5.78299 3.98535 5.99908C3.98535 6.21516 4.12686 6.4148 4.33866 6.46835C4.45019 6.49653 4.57015 6.50264 4.68589 6.50264C6.44261 6.50452 8.19934 6.50405 9.95607 6.50405C10.0399 6.50311 10.1238 6.50311 10.1683 6.50311Z" fill="#074A37"/>
</g>
<defs>
<clipPath id="clip0_535_4147">
<rect width="12" height="12" fill="white" transform="matrix(1 0 0 -1 0 12)"/>
</clipPath>
</defs>
</svg>
