<svg width="24" height="19" viewBox="0 0 24 19" fill="none" xmlns="http://www.w3.org/2000/svg">
<path d="M15.1306 11.698C12.9454 11.698 10.7601 11.7043 8.5749 11.6955C7.31597 11.6906 6.33318 10.7352 6.31937 9.53206C6.30494 8.29649 7.28585 7.32061 8.57616 7.30816C9.74722 7.29695 10.9183 7.30504 12.0894 7.30504C15.2781 7.30504 18.4675 7.3038 21.6562 7.30567C22.8311 7.30629 23.7398 8.01624 23.9469 9.08429C24.2143 10.4625 23.1769 11.6887 21.7184 11.6955C19.5218 11.7049 17.3265 11.698 15.1306 11.698Z" fill="#EBF2E4"/>
<path d="M15.1664 14.6226C17.3516 14.6226 19.5369 14.6163 21.7221 14.625C22.875 14.6294 23.763 15.3587 23.9507 16.423C24.1923 17.7931 23.1618 18.9888 21.714 18.995C19.6436 19.0043 17.5732 18.9981 15.5028 18.9981C13.2027 18.9981 10.902 19.0025 8.60189 18.9962C7.30907 18.9925 6.31561 18.0285 6.31812 16.8016C6.32063 15.6383 7.25008 14.6462 8.42178 14.6344C10.6698 14.6113 12.9178 14.6275 15.1658 14.6275C15.1664 14.6257 15.1664 14.6238 15.1664 14.6226Z" fill="#EBF2E4"/>
<path d="M15.1507 4.37991C12.9655 4.37991 10.7803 4.38676 8.5944 4.37741C7.28024 4.37181 6.2987 3.40029 6.31878 2.15414C6.33887 0.946591 7.33609 0.00683502 8.61887 0.00558948C11.8603 0.00123011 15.1018 0.00434395 18.3433 0.00434395C19.4829 0.00434395 20.6226 -0.00686586 21.7623 0.00932608C22.6635 0.0224042 23.3551 0.425957 23.7555 1.23493C24.1566 2.04453 24.0593 2.8342 23.5108 3.54789C23.0551 4.14014 22.4257 4.38676 21.6763 4.38364C19.5005 4.3743 17.3259 4.37991 15.1507 4.37991Z" fill="#EBF2E4"/>
<path d="M4.41968 9.49905C4.42031 10.6973 3.40174 11.703 2.19553 11.6962C0.994962 11.6893 0.000872015 10.696 0.000244433 9.50341C-0.000383149 8.29711 1.00877 7.29944 2.22189 7.30691C3.41743 7.31438 4.41905 8.3133 4.41968 9.49905Z" fill="#EBF2E4"/>
<path d="M4.41969 16.7948C4.42597 17.9967 3.41744 18.9975 2.20244 18.9944C0.994347 18.9919 0.00716049 18.0141 0.000884669 16.8147C-0.00539115 15.6121 0.967989 14.6356 2.18299 14.625C3.41744 14.6145 4.41404 15.581 4.41969 16.7948Z" fill="#EBF2E4"/>
<path d="M2.19861 4.37742C0.968551 4.3687 -0.00985005 3.38971 0.00081885 2.17905C0.0114877 0.970256 1.01938 -0.00935649 2.23438 0.00683545C3.44813 0.0230274 4.43783 1.02942 4.42025 2.23011C4.40205 3.42583 3.40922 4.38613 2.19861 4.37742Z" fill="#EBF2E4"/>
</svg>
