<svg width="20" height="16" viewBox="0 0 20 16" fill="none" xmlns="http://www.w3.org/2000/svg">
<path d="M10.0001 16L9.69391 15.7321C2.7274 10.067 0.851807 8.07655 0.851807 4.82296C0.851807 2.14354 3.03362 0 5.67477 0C7.89487 0 9.15803 1.26315 10.0001 2.22009C10.8422 1.26315 12.1054 0 14.3255 0C17.0049 0 19.1485 2.18182 19.1485 4.82296C19.1485 8.07655 17.2729 10.067 10.3064 15.7321L10.0001 16ZM5.67477 0.995212C3.56951 0.995212 1.84702 2.7177 1.84702 4.82296C1.84702 7.61722 3.60779 9.45455 10.0001 14.6986C16.3925 9.45455 18.1532 7.61722 18.1532 4.82296C18.1532 2.7177 16.4308 0.995212 14.3255 0.995212C12.4116 0.995212 11.3781 2.14354 10.5743 3.0622L10.0001 3.71292L9.42597 3.0622C8.62214 2.14354 7.58865 0.995212 5.67477 0.995212Z" fill="#074A37"/>
</svg>
