<svg width="36" height="35" viewBox="0 0 36 35" fill="none" xmlns="http://www.w3.org/2000/svg">
<path d="M5.90123 9.49299H5.98674C5.98674 9.49299 6.84188 9.49299 7.18394 9.49299C7.26945 9.40747 7.44048 9.32195 7.52599 9.23643C8.03908 8.89434 8.38113 8.63777 8.72319 8.63777C8.97973 8.63777 9.23628 8.72329 9.49282 8.80881C9.66385 8.89434 9.92039 8.97986 10.0914 8.97986C10.2624 8.97986 10.69 8.63777 11.0321 8.46672C11.7162 8.03911 12.4003 7.6115 12.9989 7.6115C13.512 7.6115 14.4526 8.21016 16.4195 9.40747C17.3601 10.0061 18.7283 10.8614 19.0704 10.9469C19.3269 10.9469 20.1821 10.4337 20.7807 10.0917C21.9779 9.40747 22.491 9.1509 22.9185 9.1509C23.0896 9.1509 23.3461 9.23643 23.6026 9.32195C23.8592 9.40747 24.3723 9.49299 24.4578 9.49299C24.5433 9.40747 24.7998 9.32195 25.0564 9.1509C25.655 8.80881 26.3391 8.3812 27.0232 8.29568C27.4508 8.21016 27.9639 8.63777 29.5886 9.74956C30.1872 10.1772 30.7858 10.6048 31.4699 11.0324C31.7265 10.8614 31.983 10.6903 32.2396 10.5193C32.6672 10.2627 33.0947 9.92061 33.4368 9.83508C30.5293 4.10508 24.5433 0 17.5311 0C9.83488 0 3.25029 5.04583 0.941406 12.0587L5.90123 9.49299Z" fill="#9FCEDF"/>
<path d="M30.869 28.3081C30.2704 27.966 29.5008 27.4528 28.7312 27.3673H28.6456C28.4746 27.3673 27.3629 27.3673 26.8498 27.4528C26.3368 27.4528 25.9947 27.5384 25.9092 27.4528C25.6526 27.4528 25.0541 27.2818 24.3699 27.1963C23.8569 27.1108 23.1727 26.9397 23.0017 26.9397C22.6597 26.9397 21.8045 27.1108 21.1204 27.2818C20.2653 27.4528 19.4101 27.7094 18.897 27.6239C18.4695 27.6239 17.9564 27.5384 17.5288 27.4528C17.0157 27.3673 16.5026 27.2818 15.904 27.2818C14.7924 27.2818 13.7662 27.4528 12.911 27.6239C11.7994 27.7949 10.5167 28.0515 9.23394 27.966C8.46431 27.966 7.60917 28.0515 6.66852 28.137C5.64235 28.3081 4.87272 28.3936 4.01758 28.5646C7.26711 32.4987 12.1414 34.9788 17.5288 34.9788C23.0872 34.9788 27.9615 32.4132 31.2111 28.3936C31.1256 28.4791 30.9545 28.3936 30.869 28.3081Z" fill="#074A37"/>
<path d="M29.7587 21.0385C29.1601 21.0385 28.3904 21.124 27.7918 21.295C27.1932 21.3806 26.0815 21.8082 24.7988 22.2358C22.0624 23.1765 18.6418 24.2883 16.9315 24.2883C15.3068 24.2883 11.2021 22.8344 7.52498 21.6371C5.55816 20.953 3.33479 20.1833 2.90722 20.1833C2.05208 20.1833 1.11142 20.3543 0.341797 20.6964C0.769367 23.3476 1.88105 25.8277 3.42031 27.8803L3.76236 27.7947C4.70302 27.6237 5.55816 27.4527 6.66984 27.2816C7.69601 27.1106 8.63667 27.025 9.40629 27.025C10.6035 27.025 11.8007 26.854 12.9124 26.683C13.7675 26.5119 14.8792 26.3409 16.0764 26.3409C16.675 26.3409 17.2736 26.4264 17.7867 26.5119C18.2142 26.5974 18.6418 26.5974 19.0694 26.683C19.4114 26.683 20.2666 26.5119 20.9507 26.3409C21.8058 26.1698 22.5755 25.9988 23.0886 25.9988C23.3451 25.9988 23.8582 26.0843 24.6278 26.2553C25.1409 26.3409 25.825 26.5119 25.996 26.5119C26.0815 26.5119 26.4236 26.5119 26.8512 26.5119C28.1339 26.4264 28.7325 26.4264 28.989 26.5119C29.9297 26.683 30.8703 27.1961 31.4689 27.6237C31.64 27.7092 31.811 27.7947 31.982 27.8803C33.0937 26.2553 33.9488 24.4594 34.5474 22.5779C33.1792 21.9792 30.7848 21.0385 29.7587 21.0385Z" fill="#4C94A0"/>
<path d="M2.82197 19.1571C3.33505 19.1571 4.8743 19.6703 7.78179 20.6965C11.0313 21.8083 15.3925 23.3477 16.8463 23.3477C18.4711 23.3477 21.8916 22.1504 24.457 21.2952C25.8253 20.8676 26.9369 20.44 27.5355 20.3544C28.2197 20.1834 28.9893 20.0124 29.7589 20.0979C31.0416 20.1834 33.5215 21.1241 34.6332 21.5518C34.8898 20.2689 35.0608 18.9861 35.0608 17.7032C35.0608 15.3086 34.5477 13.085 33.6926 10.947L32.7519 11.5456C32.6664 11.6312 21.8061 18.9861 19.6682 18.9861C18.6421 18.9861 16.6753 17.7888 13.9388 15.9928C12.7416 15.2231 11.2879 14.2823 10.9458 14.1968C10.5182 14.1968 9.83412 14.6244 9.0645 15.0521C7.8673 15.7362 6.58459 16.5059 5.21636 16.4204H5.13085C4.53225 16.2494 4.01916 15.9928 3.59159 15.8218C2.56542 15.3086 1.88131 15.0521 0.0855141 15.6507C0.0855141 16.1638 0 16.848 0 17.5322C0 18.2164 0.0855141 18.9006 0.171028 19.5847C1.02617 19.3282 1.96682 19.1571 2.82197 19.1571Z" fill="#9ABF78"/>
<path d="M4.10442 14.7953C4.53199 14.9663 4.95956 15.2229 5.47264 15.3084C6.49881 15.3939 7.6105 14.6242 8.63667 14.0256C9.57732 13.5124 10.3469 12.9993 11.0311 12.9993C11.5441 12.9993 12.3993 13.5124 14.6227 14.9663C16.3329 16.0781 18.9839 17.7885 19.7535 17.7885C20.8652 17.7885 26.6801 14.1966 30.5283 11.6309C29.9297 11.2033 29.4166 10.8612 28.9035 10.5191C28.2194 10.0915 27.3643 9.49287 27.1077 9.40735C26.6801 9.49287 26.0815 9.83496 25.654 10.0915C25.3974 10.2626 25.1409 10.4336 24.8843 10.5191C24.3713 10.6902 23.8582 10.5191 23.3451 10.4336C23.1741 10.3481 23.003 10.3481 22.832 10.2626C22.661 10.2626 21.8914 10.7757 21.2928 11.0323C20.1811 11.6309 19.497 12.0585 19.0694 12.0585C18.6418 12.0585 17.8722 11.6309 15.9054 10.3481C14.8792 9.66391 13.3399 8.72317 12.9979 8.63764C12.7413 8.63764 12.0572 9.06526 11.6297 9.32182C10.9455 9.74944 10.518 10.006 10.1759 10.006C9.74835 10.006 9.40629 9.83496 9.14975 9.74944C8.97872 9.66391 8.89321 9.66391 8.80769 9.66391C8.72218 9.66391 8.38012 9.92048 8.2091 10.0915C7.86704 10.3481 7.6105 10.5191 7.35396 10.5191C7.18293 10.5191 6.49881 10.5191 6.24227 10.5191L0.598339 13.3414C0.512825 13.6835 0.427311 14.0256 0.341797 14.3676C2.13759 13.8545 3.07825 14.2821 4.10442 14.7953Z" fill="#FEC045"/>
</svg>
