<svg width="20" height="20" viewBox="0 0 20 20" fill="none" xmlns="http://www.w3.org/2000/svg">
<path d="M17.277 12.2448C16.8331 12.2448 16.3891 12.2471 15.9452 12.2444C15.15 12.2394 14.5581 11.6455 14.5554 10.8484C14.5527 9.96667 14.5527 9.08534 14.5554 8.20363C14.5577 7.39764 15.1512 6.80571 15.961 6.803C16.8362 6.79991 17.7113 6.8003 18.5865 6.803C19.4052 6.80571 19.994 7.39687 19.9967 8.21947C19.9994 9.08805 19.9994 9.95701 19.9967 10.8256C19.9944 11.6582 19.4056 12.2424 18.5706 12.2448C18.139 12.2459 17.7078 12.2448 17.277 12.2448Z" fill="#4C94A0"/>
<path d="M7.7554 16.3234C7.7554 15.8794 7.75269 15.4355 7.75617 14.9915C7.76235 14.1964 8.3566 13.604 9.15331 13.6017C10.035 13.599 10.9164 13.599 11.7981 13.6017C12.6056 13.604 13.1952 14.196 13.1975 15.0074C13.2002 15.8825 13.1999 16.7577 13.1975 17.6328C13.1952 18.4519 12.6048 19.0408 11.7822 19.0435C10.9137 19.0462 10.0447 19.0462 9.17611 19.0435C8.34462 19.0412 7.75887 18.4516 7.75578 17.6174C7.75385 17.1858 7.7554 16.7546 7.7554 16.3234Z" fill="#4C94A0"/>
<path d="M13.1981 9.52698C13.1981 9.97093 13.2008 10.4149 13.1977 10.8592C13.1923 11.6447 12.6 12.2405 11.8164 12.244C10.922 12.2479 10.0275 12.2482 9.13303 12.244C8.36104 12.2401 7.76216 11.6443 7.75713 10.8727C7.75172 9.97827 7.75211 9.0838 7.75675 8.18933C7.76061 7.4046 8.35563 6.80803 9.13882 6.80378C10.0333 6.79914 10.9278 6.79876 11.8222 6.80378C12.5961 6.80842 13.1904 7.40421 13.1973 8.17581C13.2012 8.62594 13.1977 9.07646 13.1981 9.52698Z" fill="#4C94A0"/>
<path d="M14.5543 16.3199C14.5543 15.8759 14.552 15.432 14.5547 14.9881C14.5597 14.2022 15.152 13.6056 15.9352 13.6021C16.8297 13.5982 17.7241 13.5982 18.6186 13.6021C19.3917 13.6056 19.9898 14.1983 19.9953 14.9722C20.0014 15.8729 20.0018 16.7739 19.9953 17.6749C19.9895 18.4384 19.3952 19.0358 18.6344 19.0419C17.7272 19.0489 16.82 19.0493 15.9124 19.0419C15.1516 19.0354 14.5616 18.4342 14.555 17.6714C14.5516 17.2205 14.5547 16.7704 14.5543 16.3199Z" fill="#4C94A0"/>
<path d="M6.39852 16.3296C6.39852 16.7735 6.40045 17.2175 6.39813 17.6614C6.39388 18.4361 5.80543 19.0365 5.03267 19.0419C4.13202 19.0485 3.23098 19.0481 2.32995 19.0419C1.55796 19.0369 0.963328 18.4396 0.958305 17.6653C0.952509 16.7708 0.952895 15.8763 0.958305 14.9819C0.962941 14.1979 1.56144 13.6048 2.34579 13.6017C3.23369 13.5982 4.12159 13.5986 5.00987 13.6017C5.80658 13.6044 6.39504 14.1983 6.39852 14.9973C6.40006 15.4417 6.39852 15.8856 6.39852 16.3296Z" fill="#4C94A0"/>
<path d="M10.4658 5.44527C10.0219 5.44527 9.57794 5.4472 9.13399 5.44488C8.36162 5.44063 7.76157 4.84831 7.75693 4.07594C7.75114 3.17529 7.75075 2.27426 7.75693 1.37322C7.76196 0.610513 8.35659 0.0120119 9.11815 0.00582982C10.0254 -0.00151138 10.933 -0.00228414 11.8402 0.00582982C12.601 0.0127846 13.1925 0.613604 13.1968 1.37632C13.2018 2.27735 13.2022 3.178 13.1968 4.07903C13.1921 4.85102 12.5925 5.44063 11.8174 5.4445C11.3669 5.4472 10.9164 5.44527 10.4658 5.44527Z" fill="#4C94A0"/>
<path d="M6.39872 9.53046C6.39872 9.9744 6.40065 10.4184 6.39834 10.8623C6.39409 11.6463 5.80138 12.2401 5.01471 12.2436C4.12681 12.2471 3.23853 12.2471 2.35063 12.2436C1.55624 12.2405 0.9616 11.6459 0.958123 10.8492C0.953872 9.96745 0.954259 9.08612 0.958123 8.2044C0.9616 7.39726 1.55624 6.80533 2.36415 6.80262C3.2393 6.79953 4.11445 6.79992 4.9896 6.80262C5.81104 6.80533 6.3964 7.39494 6.39872 8.21793C6.39949 8.65531 6.39872 9.09307 6.39872 9.53046Z" fill="#4C94A0"/>
<path d="M17.2686 5.44528C16.8246 5.44528 16.3807 5.44721 15.9367 5.44489C15.1536 5.44103 14.5585 4.84678 14.5554 4.06127C14.552 3.17337 14.5524 2.28547 14.5554 1.39719C14.5581 0.602405 15.152 0.00854093 15.9503 0.00467715C16.832 0.00042698 17.7133 0.000813358 18.595 0.00467715C19.4026 0.00815456 19.9937 0.601246 19.9968 1.41032C20.0003 2.28547 19.9999 3.16062 19.9968 4.03577C19.9941 4.85837 19.4045 5.44296 18.5819 5.44489C18.1437 5.44605 17.706 5.44528 17.2686 5.44528Z" fill="#4C94A0"/>
<path d="M3.67131 5.44504C3.22736 5.44504 2.78341 5.44697 2.33946 5.44466C1.56632 5.44041 0.965112 4.85118 0.95893 4.07881C0.951975 3.17816 0.952361 2.27712 0.95893 1.37647C0.964725 0.603717 1.56168 0.0102394 2.33676 0.00521651C3.23122 -0.000579169 4.12569 -0.000579169 5.02016 0.00521651C5.80567 0.0102394 6.39605 0.607581 6.39837 1.39309C6.40107 2.28099 6.40107 3.16889 6.39837 4.05717C6.39605 4.85388 5.80335 5.44234 5.00393 5.44543C4.55921 5.4462 4.11526 5.44504 3.67131 5.44504Z" fill="#4C94A0"/>
</svg>
