<svg width="12" height="18" viewBox="0 0 12 18" fill="none" xmlns="http://www.w3.org/2000/svg">
<path d="M5.8495 17.1L5.54316 16.7256C5.33893 16.4533 0.131104 10.3605 0.131104 6.7184C0.131104 3.55286 2.718 1 5.8495 1C8.981 1 11.5679 3.5869 11.5679 6.7184C11.5679 10.3605 6.36007 16.4873 6.15584 16.7256L5.8495 17.1ZM5.8495 1.78288C3.12645 1.78288 0.94802 3.99535 0.94802 6.68436C0.94802 9.54356 4.72624 14.411 5.8495 15.8066C6.97275 14.411 10.751 9.57759 10.751 6.68436C10.751 3.99535 8.57254 1.78288 5.8495 1.78288Z" fill="#074A37" stroke="#4C94A0" stroke-width="0.2"/>
<path d="M5.84933 8.89679C4.658 8.89679 3.6709 7.90969 3.6709 6.71836C3.6709 5.52703 4.658 4.53992 5.84933 4.53992C7.04066 4.53992 8.02777 5.52703 8.02777 6.71836C8.02777 7.90969 7.04066 8.89679 5.84933 8.89679ZM5.84933 5.35684C5.10049 5.35684 4.48781 5.96952 4.48781 6.71836C4.48781 7.4672 5.10049 8.07988 5.84933 8.07988C6.59817 8.07988 7.21085 7.4672 7.21085 6.71836C7.21085 5.96952 6.59817 5.35684 5.84933 5.35684Z" fill="#074A37" stroke="#4C94A0" stroke-width="0.2"/>
</svg>
