<svg width="13" height="14" viewBox="0 0 13 14" fill="none" xmlns="http://www.w3.org/2000/svg">
<path d="M6.11447 13.9984C4.67472 13.9984 3.2353 14.0008 1.79555 13.9973C0.899112 13.9953 0.164208 13.3884 0.0306823 12.5453C0.0122413 12.4282 0.00916786 12.3073 0.00882637 12.1881C0.00746037 10.4929 0.0296578 8.797 0.000288908 7.10249C-0.017469 6.07219 0.785394 5.20922 1.8577 5.25396C2.19271 5.26796 2.52943 5.24542 2.86444 5.26079C3.03723 5.26864 3.06797 5.20922 3.06558 5.05111C3.05636 4.40841 3.05123 3.76537 3.06387 3.12267C3.0888 1.82942 3.67071 0.872537 4.83454 0.293698C6.36104 -0.465453 8.33524 0.309748 8.95608 1.8984C9.11556 2.30615 9.19376 2.72619 9.1924 3.16331C9.19069 3.80601 9.19615 4.44905 9.18864 5.09175C9.18693 5.2304 9.23065 5.26216 9.36144 5.25942C9.73094 5.25123 10.1011 5.25396 10.471 5.25703C11.4914 5.26557 12.2392 6.00355 12.243 7.02463C12.2495 8.75978 12.2485 10.4949 12.243 12.2301C12.2399 13.2419 11.4835 13.9939 10.4676 13.9977C9.01653 14.0025 7.5655 13.9984 6.11447 13.9984ZM6.11789 13.1228C7.54638 13.1228 8.97486 13.1088 10.403 13.1293C11.0297 13.1381 11.392 12.6734 11.3872 12.1382C11.3729 10.4601 11.3821 8.78164 11.3817 7.10317C11.3817 6.47994 11.0225 6.12 10.3948 6.11966C7.54945 6.11863 4.70409 6.11863 1.85872 6.11966C1.23071 6.12 0.872134 6.47755 0.871451 7.10249C0.870427 8.79222 0.870427 10.482 0.87111 12.172C0.871451 12.7574 1.23378 13.1221 1.81569 13.1224C3.24965 13.1228 4.68394 13.1224 6.11789 13.1228ZM6.10867 5.25601C6.79098 5.25601 7.4733 5.25225 8.15561 5.25942C8.2864 5.26079 8.31509 5.22357 8.31406 5.0979C8.30792 4.41012 8.31338 3.722 8.31065 3.03422C8.30587 1.83898 7.33192 0.88005 6.12711 0.88005C4.92299 0.88005 3.9463 1.84103 3.94152 3.03388C3.93879 3.72166 3.94425 4.40978 3.93811 5.09755C3.93708 5.2222 3.9644 5.26113 4.09588 5.25977C4.76658 5.25225 5.43762 5.25601 6.10867 5.25601Z" fill="#C3C8BD"/>
<path d="M5.68513 11.115C5.68513 10.933 5.67933 10.751 5.68752 10.5696C5.6923 10.4661 5.66362 10.4105 5.56356 10.363C4.96798 10.0803 4.67532 9.40033 4.87783 8.78973C5.09161 8.14498 5.73055 7.77411 6.39886 7.90696C6.91384 8.00906 7.34823 8.46291 7.41858 8.97277C7.49951 9.55673 7.22461 10.1134 6.71987 10.3473C6.59249 10.4064 6.56312 10.4754 6.56586 10.6031C6.57405 10.9552 6.56176 11.3079 6.572 11.66C6.5761 11.7939 6.53136 11.8229 6.40842 11.8161C6.22709 11.8058 6.04405 11.8048 5.86305 11.8164C5.72611 11.8253 5.66942 11.7925 5.68138 11.6429C5.69606 11.4684 5.68513 11.2912 5.68513 11.115ZM6.12908 9.62913C6.3712 9.62811 6.57439 9.4215 6.56961 9.18143C6.56483 8.94306 6.3531 8.73919 6.1161 8.74465C5.88627 8.75011 5.68513 8.95536 5.68411 9.18587C5.6824 9.42662 5.8873 9.63016 6.12908 9.62913Z" fill="#C3C8BD"/>
</svg>
