<svg width="15" height="16" viewBox="0 0 15 16" fill="none" xmlns="http://www.w3.org/2000/svg">
<path d="M9.28223 8.01932C6.72232 10.6813 4.15852 13.3474 1.60768 16C1.08878 15.4644 0.552174 14.9098 0.000442505 14.3401C2.01597 12.2474 4.03581 10.1502 6.10016 8.00719C5.79513 7.70567 5.50436 7.42976 5.22569 7.14127C3.53377 5.38696 1.8466 3.6277 0.152525 1.87564C0.00865078 1.7269 -0.00301456 1.64287 0.152525 1.48694C0.639015 0.999382 1.1065 0.491603 1.57355 0C4.15549 2.68629 6.71886 5.35281 9.28223 8.01932Z" fill="#4C94A0"/>
<path d="M7.34835 15.9681C6.85322 15.4522 6.32222 14.8986 5.76747 14.3203C7.76744 12.2469 9.79247 10.1479 11.8283 8.03773C9.78297 5.91494 7.76312 3.81867 5.76012 1.73991C6.31747 1.16024 6.8489 0.607521 7.36434 0.0714312C9.89789 2.70874 12.4591 5.37481 15 8.01931C12.4647 10.6535 9.89746 13.3204 7.34835 15.9681Z" fill="#4C94A0"/>
</svg>
