<svg width="15" height="16" viewBox="0 0 15 16" fill="none" xmlns="http://www.w3.org/2000/svg">
<path d="M5.71777 8.01932C8.27768 10.6813 10.8415 13.3474 13.3923 16C13.9112 15.4644 14.4478 14.9098 14.9996 14.3401C12.984 12.2474 10.9642 10.1502 8.89984 8.00719C9.20487 7.70567 9.49564 7.42976 9.77431 7.14127C11.4662 5.38696 13.1534 3.6277 14.8475 1.87564C14.9913 1.7269 15.003 1.64287 14.8475 1.48694C14.361 0.999382 13.8935 0.491603 13.4265 0C10.8445 2.68629 8.28114 5.35281 5.71777 8.01932Z" fill="#4C94A0"/>
<path d="M7.65165 15.9681C8.14678 15.4522 8.67778 14.8986 9.23253 14.3203C7.23256 12.2469 5.20753 10.1479 3.1717 8.03773C5.21703 5.91494 7.23688 3.81867 9.23988 1.73991C8.68253 1.16024 8.1511 0.607521 7.63566 0.0714312C5.10211 2.70874 2.5409 5.37481 0 8.01931C2.53528 10.6535 5.10254 13.3204 7.65165 15.9681Z" fill="#4C94A0"/>
</svg>
