<svg width="34" height="34" viewBox="0 0 34 34" fill="none" xmlns="http://www.w3.org/2000/svg">
<path d="M18.0579 32.9353C17.3123 33.876 16.5433 34.1803 15.6259 33.9001C15.2162 33.7751 14.9052 33.5077 14.6107 33.2125C12.0424 30.6359 9.47257 28.0616 6.90578 25.4835C6.78302 25.36 6.68586 25.2101 6.54426 25.0308C6.29949 25.4827 6.18952 25.8774 6.05245 26.2607C5.83252 26.8776 5.52147 27.038 4.90312 26.858C3.54516 26.4641 2.18645 26.0747 0.827738 25.6838C0.168718 25.4948 -0.106187 25.1461 0.036914 24.6761C0.173237 24.228 0.581453 24.0916 1.22541 24.2792C2.2949 24.5895 3.36741 24.8885 4.43088 25.2169C4.74043 25.3125 4.8745 25.2733 4.98973 24.945C5.85512 22.4791 6.74235 20.0208 7.6228 17.5602C7.95118 16.6421 8.26675 15.7187 8.61698 14.8089C8.73296 14.5084 8.67723 14.4074 8.37295 14.3238C7.23868 14.0135 6.11119 13.6806 4.98371 13.3462C4.59658 13.2317 4.36837 12.9116 4.40076 12.575C4.44444 12.1223 4.87374 11.8105 5.32188 11.9378C6.8139 12.3611 8.30441 12.7904 9.79116 13.2332C10.3681 13.405 10.5323 13.7695 10.3334 14.3329C10.2333 14.6161 10.1467 14.9045 10.0254 15.1787C9.92899 15.3963 10.002 15.4551 10.2084 15.4829C10.991 15.5876 11.7742 15.6916 12.5545 15.8174C13.1556 15.9145 13.7807 15.9032 14.3463 16.1774C14.4465 16.2256 14.5143 16.1578 14.5873 16.1179C16.2586 15.1998 18.0195 15.0182 19.8135 15.6253C20.755 15.9439 21.6535 15.9913 22.5965 15.7413C22.9708 15.6419 23.3572 15.5756 23.7413 15.5259C23.9816 15.495 24.0019 15.4054 23.9213 15.2065C23.8 14.9053 23.6946 14.598 23.5876 14.2914C23.4227 13.8215 23.5575 13.4569 24.0087 13.2792C25.4977 12.6925 26.9912 12.1163 28.4893 11.5499C28.9509 11.3752 29.3351 11.5507 29.4766 11.9498C29.625 12.3679 29.4315 12.7414 28.9637 12.9237C27.8091 13.3718 26.656 13.8222 25.4962 14.2568C25.2597 14.3457 25.2002 14.4247 25.2936 14.6823C26.531 18.104 27.7579 21.5301 28.975 24.9593C29.0745 25.2387 29.1799 25.25 29.4284 25.1498C30.507 24.7153 31.5946 24.3025 32.6791 23.8822C32.7959 23.8371 32.9126 23.7881 33.0331 23.7572C33.4052 23.6616 33.7576 23.8371 33.897 24.1782C34.0416 24.5322 33.9022 24.9322 33.5392 25.0956C33.1062 25.2899 32.658 25.4511 32.2152 25.6221C31.1524 26.0318 30.0897 26.44 29.0263 26.8467C28.5126 27.0433 28.1887 26.9205 27.9673 26.4159C27.8845 26.2276 27.828 26.199 27.6502 26.3112C27.0575 26.6863 26.4565 27.0478 25.8532 27.4056C25.7063 27.4929 25.6626 27.5705 25.698 27.7573C25.93 28.9797 25.3305 29.9151 24.1375 30.2179C23.9755 30.2593 23.9017 30.3256 23.8565 30.5018C23.5583 31.6632 22.7162 32.2318 21.5067 32.1068C21.3764 32.0933 21.2852 32.0865 21.1948 32.2251C20.3596 33.4896 19.3481 33.7148 18.0579 32.9353ZM12.9808 17.3403C11.8586 17.1813 10.771 17.0367 9.68722 16.8688C9.41383 16.8266 9.37843 16.9848 9.3129 17.1685C8.58911 19.1945 7.86833 21.2221 7.12797 23.2421C7.03985 23.4823 7.07223 23.6096 7.24847 23.7851C9.74597 26.2735 12.2352 28.771 14.7267 31.2655C15.0904 31.6293 15.4497 31.9976 15.824 32.3501C16.0839 32.5949 16.3994 32.5873 16.6314 32.3614C16.8566 32.1415 16.8754 31.8063 16.6668 31.5427C16.5734 31.4252 16.4619 31.322 16.3565 31.2151C15.5491 30.3896 14.7425 29.5649 13.9343 28.7409C13.8018 28.6054 13.6752 28.4675 13.6496 28.2687C13.6059 27.9207 13.7302 27.6503 14.0435 27.4884C14.3493 27.3302 14.6333 27.3995 14.8683 27.6345C15.4964 28.2657 16.1162 28.9059 16.7421 29.54C17.4561 30.2638 18.1686 30.9884 18.8894 31.7046C19.1688 31.9825 19.5123 31.9878 19.7601 31.7445C19.9996 31.5088 19.9905 31.1526 19.7345 30.8694C19.6674 30.7948 19.5921 30.7278 19.5213 30.657C18.3599 29.4941 17.197 28.3327 16.0379 27.1668C15.6327 26.7593 15.6003 26.3383 15.9347 26.0137C16.245 25.7124 16.6834 25.7591 17.063 26.1387C18.0474 27.1239 19.0295 28.1113 20.0131 29.0972C20.465 29.5498 20.9154 30.0047 21.3726 30.4529C21.6445 30.7195 22.009 30.7391 22.2485 30.5161C22.5129 30.2698 22.5001 29.9332 22.2109 29.6184C22.1604 29.5626 22.1054 29.5114 22.0519 29.4579C20.6962 28.0992 19.339 26.7413 17.9848 25.3803C17.554 24.9472 17.5104 24.5443 17.8417 24.2038C18.1664 23.871 18.5475 23.9071 18.982 24.3379C20.0417 25.3893 21.0939 26.449 22.1499 27.505C22.5227 27.8778 22.8872 28.2581 23.2713 28.6189C23.5289 28.8607 23.898 28.8531 24.1209 28.634C24.3401 28.4186 24.337 28.0533 24.1119 27.7829C24.0637 27.7249 24.0079 27.6744 23.9544 27.6217C21.8697 25.5543 19.7834 23.4891 17.7039 21.4164C17.5427 21.256 17.4207 21.2394 17.2181 21.3373C16.0906 21.8803 14.9549 22.406 13.8236 22.9415C13.6052 23.0447 13.3823 23.117 13.1405 23.1298C12.1666 23.1803 11.4188 22.7728 10.9646 21.9308C10.5089 21.0865 10.576 20.2249 11.1808 19.4634C11.7464 18.7487 12.358 18.0701 12.9808 17.3403ZM19.7864 21.3094C21.3816 22.9415 23.0032 24.597 24.6195 26.257C24.7648 26.4061 24.8552 26.3029 24.9712 26.2321C25.6558 25.8149 26.3344 25.3871 27.0326 24.9939C27.3083 24.8388 27.3452 24.6994 27.2382 24.4065C26.3548 21.9873 25.4864 19.5621 24.6255 17.1339C24.5449 16.9057 24.4485 16.853 24.2203 16.9012C23.4973 17.0525 22.7727 17.1972 22.0437 17.3162C21.5955 17.3892 21.1579 17.5722 20.6797 17.4013C20.1389 17.2084 19.5838 17.0458 19.025 16.9117C17.1428 16.4628 15.4904 16.9192 14.1264 18.284C13.49 18.9211 12.9341 19.6397 12.3534 20.3303C12.0665 20.6715 12.0733 21.0767 12.3391 21.3938C12.6027 21.7086 12.9349 21.7643 13.3506 21.5685C14.5617 20.9991 15.7705 20.423 16.9862 19.8641C18.1543 19.3271 19.3157 19.3587 20.4575 19.9552C21.1451 20.3145 21.832 20.6745 22.5197 21.0345C23.0085 21.2906 23.1734 21.6657 22.9753 22.0686C22.7712 22.4844 22.3472 22.5845 21.8463 22.3262C21.2792 22.034 20.7151 21.7357 20.151 21.4367C20.0094 21.3644 19.873 21.2786 19.7864 21.3094Z" fill="#074A37"/>
<path d="M23.6238 6.69352C23.6132 10.3908 20.6269 13.3636 16.9379 13.3492C13.2534 13.3349 10.2807 10.326 10.3085 6.63854C10.3364 2.94878 13.3039 -0.00664478 16.9748 0.000133707C20.6653 0.0069122 23.6343 2.99547 23.6238 6.69352ZM22.1679 6.6777C22.1701 3.80663 19.8579 1.46052 17.0155 1.45148C14.1135 1.44169 11.7719 3.76446 11.7652 6.65887C11.7584 9.54952 14.0781 11.9039 16.9372 11.9084C19.8338 11.913 22.1649 9.58191 22.1679 6.6777Z" fill="#074A37"/>
<path d="M16.1569 9.36721C15.8986 9.3785 15.7194 9.28511 15.5612 9.12544C14.9707 8.52893 14.3727 7.93996 13.7837 7.34119C13.4365 6.98871 13.4222 6.5933 13.7295 6.27923C14.0406 5.96064 14.4608 5.98022 14.8238 6.33722C15.1808 6.6882 15.5476 7.03239 15.882 7.40446C16.0703 7.61384 16.1735 7.5679 16.3467 7.39241C17.2603 6.463 18.183 5.54263 19.1079 4.62452C19.4136 4.321 19.7495 4.26677 20.0553 4.44527C20.502 4.70587 20.5584 5.21727 20.163 5.62096C19.3564 6.44417 18.5392 7.25759 17.7258 8.07402C17.3808 8.42048 17.0329 8.76392 16.6872 9.10887C16.532 9.26402 16.3595 9.38227 16.1569 9.36721Z" fill="#074A37"/>
</svg>
