<svg width="14" height="17" viewBox="0 0 14 17" fill="none" xmlns="http://www.w3.org/2000/svg">
<path d="M4.69615 7.49961C2.54229 5.96412 2.38041 3.05502 4.01734 1.30414C5.62613 -0.416163 8.32679 -0.440481 9.96199 1.26663C11.643 3.02167 11.5951 5.78313 9.38496 7.48607C9.44889 7.54443 9.53261 7.54512 9.60591 7.56527C10.629 7.84319 11.5708 8.2823 12.3771 8.98057C13.43 9.89213 14.013 11.0278 13.9998 12.442C13.9953 12.9398 14.0008 13.4377 13.9987 13.9355C13.9939 15.1128 13.1077 16.0039 11.9331 16.0046C8.65057 16.0067 5.36837 16.0063 2.08582 16.0046C0.953651 16.0039 0.0809907 15.1997 0.0229755 14.0637C-0.0110694 13.3942 -0.00585845 12.7199 0.0292286 12.0505C0.0921074 10.8617 0.638215 9.89769 1.50358 9.10459C2.34984 8.3292 3.35798 7.85882 4.45714 7.56562C4.52801 7.54651 4.59888 7.52636 4.69615 7.49961ZM6.9921 15.0009C8.63598 15.0009 10.2795 15.0023 11.9234 15.0003C12.5699 14.9996 12.9906 14.5796 12.9937 13.9362C12.9965 13.4154 12.9892 12.8947 12.9955 12.3739C13.0062 11.5117 12.6769 10.7881 12.1054 10.1624C11.4739 9.4704 10.6849 9.02191 9.81226 8.71446C8.39454 8.21456 6.93721 8.13396 5.46494 8.38131C4.26781 8.58245 3.15649 9.00523 2.22999 9.823C1.43514 10.5244 0.985959 11.3877 1.00854 12.4702C1.01827 12.9329 1.00993 13.396 1.01028 13.8591C1.01097 14.5896 1.41951 15.0009 2.14765 15.0013C3.76235 15.0013 5.37705 15.0009 6.9921 15.0009ZM6.998 7.19703C8.68044 7.20676 10.0912 5.81544 10.1037 4.13404C10.1162 2.4311 8.73325 1.01059 7.05289 1.00017C5.32043 0.989403 3.93119 2.35155 3.91521 4.07602C3.89923 5.81127 5.25789 7.18661 6.998 7.19703Z" fill="#074A37"/>
</svg>
