<svg width="15" height="15" viewBox="0 0 15 15" fill="none" xmlns="http://www.w3.org/2000/svg">
<path d="M6.32325 14.9885C4.65307 14.9885 2.98347 14.9891 1.31329 14.9885C0.493436 14.9879 0.000586029 14.4975 0.000586029 13.6804C0 10.3543 0 7.02879 0 3.70267C0 2.85227 0.488162 2.36122 1.34376 2.36064C4.00023 2.3583 6.6567 2.35713 9.31317 2.36474C9.52766 2.36532 9.67593 2.30153 9.82302 2.14994C10.3118 1.64485 10.8116 1.15088 11.3121 0.658075C11.9884 -0.00679711 12.9044 -0.178868 13.7383 0.193367C14.547 0.554481 15.0428 1.36684 14.9971 2.28923C14.9707 2.82535 14.7539 3.28713 14.3741 3.66814C13.8778 4.16562 13.3884 4.67013 12.8786 5.15357C12.6981 5.32505 12.6406 5.50122 12.6418 5.74235C12.6494 8.34683 12.6313 10.9507 12.6541 13.5552C12.6623 14.484 12.0716 15.019 11.216 14.9996C9.58568 14.9622 7.95417 14.9885 6.32325 14.9885ZM11.6948 6.42069C11.6626 6.39611 11.6303 6.37211 11.5981 6.34753C11.5407 6.4359 11.4973 6.53774 11.4246 6.61032C9.99121 8.04716 8.5572 9.4846 7.11263 10.9103C6.97609 11.0449 6.77977 11.1526 6.59341 11.1965C5.70323 11.4084 4.80661 11.5928 3.9135 11.7906C3.28235 11.9305 3.03973 11.6923 3.18097 11.0689C3.37436 10.2156 3.57068 9.36286 3.75352 8.50719C3.81271 8.22977 3.93753 8.01146 4.14088 7.81071C5.56317 6.40313 6.9755 4.98618 8.39076 3.57216C8.46226 3.50075 8.53141 3.42642 8.65682 3.29532C8.49039 3.29532 8.40659 3.29532 8.32278 3.29532C6.01793 3.29532 3.71308 3.29474 1.40881 3.29591C0.999766 3.29591 0.936474 3.36029 0.936474 3.76998C0.936474 7.03757 0.936474 10.3046 0.936474 13.5722C0.936474 14.0117 0.978668 14.0533 1.42464 14.0533C4.68647 14.0533 7.94831 14.0533 11.2101 14.0533C11.6555 14.0533 11.7089 14 11.7089 13.5452C11.7094 11.2632 11.7094 8.98068 11.7083 6.69869C11.7077 6.60622 11.6995 6.51375 11.6948 6.42069ZM6.8542 9.78016C8.88127 7.7557 10.9089 5.73065 12.902 3.74013C12.3588 3.20051 11.7956 2.6404 11.2764 2.12477C9.27098 4.127 7.23922 6.15614 5.2309 8.16129C5.76067 8.6898 6.31915 9.24639 6.8542 9.78016ZM13.665 3.03253C14.1983 2.5409 14.2012 1.75312 13.6691 1.26208C13.1628 0.795029 12.3781 0.841266 11.9808 1.34694C12.5387 1.90529 13.0948 2.46131 13.665 3.03253ZM5.96109 10.3877C5.5034 9.93058 5.0545 9.48226 4.60443 9.03218C4.48195 9.58117 4.35302 10.1612 4.21765 10.7699C4.84177 10.6329 5.41901 10.5065 5.96109 10.3877Z" fill="#074A37"/>
</svg>
