<svg width="14" height="15" viewBox="0 0 14 15" fill="none" xmlns="http://www.w3.org/2000/svg">
<path d="M8.91706 7.03289C9.31508 7.13015 9.68033 7.24127 10.0342 7.38384C11.0458 7.79156 11.9284 8.37196 12.5758 9.25694C13.0659 9.92714 13.3288 10.6749 13.3318 11.5047C13.3337 12.0419 13.3356 12.5789 13.3312 13.1161C13.3226 14.1565 12.4746 14.9962 11.417 14.9975C8.24991 15.0015 5.08312 15.0015 1.91605 14.9975C0.863879 14.9962 0.0180279 14.1642 0.00394844 13.1281C-0.00336205 12.5954 0.00151161 12.0627 0.00259464 11.53C0.00503147 10.475 0.406296 9.57779 1.13085 8.81592C2.01 7.89096 3.12309 7.37452 4.34936 7.06273C4.37535 7.05607 4.40162 7.05074 4.42734 7.04275C4.43465 7.04035 4.44006 7.03155 4.45035 7.02169C3.37923 6.23584 2.78437 5.19976 2.7684 3.87268C2.7554 2.81288 3.14556 1.90418 3.89746 1.15163C5.42887 -0.381434 7.90307 -0.385964 9.44234 1.15057C10.2857 1.99238 10.7057 3.01088 10.5947 4.20285C10.4839 5.38576 9.87338 6.2982 8.91706 7.03289ZM6.66706 14.0645C8.20118 14.0645 9.7353 14.0515 11.2691 14.0707C11.932 14.0789 12.4155 13.6446 12.3868 12.9752C12.3665 12.5008 12.382 12.0252 12.3833 11.5503C12.3839 11.3363 12.3608 11.1252 12.3097 10.9177C12.1361 10.2136 11.7311 9.65267 11.1806 9.18926C10.2917 8.44151 9.24035 8.04818 8.10208 7.85472C6.89341 7.64926 5.69232 7.69722 4.50748 8.00448C3.54466 8.25444 2.66091 8.66482 1.9415 9.363C1.29736 9.98843 0.931298 10.7333 0.951876 11.6428C0.962706 12.1176 0.954583 12.5928 0.9535 13.0679C0.953229 13.1798 0.966767 13.2888 1.00142 13.3954C1.13464 13.8069 1.50016 14.0632 1.97047 14.0637C3.53573 14.0653 5.10153 14.0643 6.66706 14.0645ZM6.65704 6.74935C8.26345 6.76054 9.60506 5.46038 9.61914 3.87881C9.63322 2.27939 8.31327 0.949642 6.69928 0.937384C5.07445 0.924859 3.72851 2.22369 3.7166 3.81592C3.70414 5.44865 4.99647 6.73789 6.65704 6.74935Z" fill="#074A37"/>
</svg>
